<?xml version="1.0" standalone="no"?><!DOCTYPE svg PUBLIC "-//W3C//DTD SVG 1.1//EN" "http://www.w3.org/Graphics/SVG/1.1/DTD/svg11.dtd">
<svg t="1725345146801" class="icon" viewBox="0 0 1257 1024" version="1.1"
  xmlns="http://www.w3.org/2000/svg" p-id="25025"
  xmlns:xlink="http://www.w3.org/1999/xlink" width="314.25" height="256">
  <path d="M198.42048 596.75648l-74.24 81.06496 11.09504 63.14496 49.49504 89.6 55.46496 44.37504 118.61504 62.29504 150.18496 27.30496 87.04-10.4192 90.44992-17.7408s89.6-40.95488 172.37504-116.90496 116.05504-119.47008 116.05504-119.47008l43.52-160.42496V433.7664l-50.35008-110.08-93.00992-92.16-126.6432-82.2272-86.69184-12.4928-95.57504 5.97504-77.65504 39.24992-59.73504 33.28-58.88 68.26496-0.85504 56.32L345.1904 405.6064l-28.16 40.10496-46.93504 69.97504-42.66496 47.78496-29.00992 33.28512z" fill="#FFD217" p-id="25026"></path>
  <path d="M474.90048 983.31648s61.10208-15.08864 144.20992-29.87008c175.11936-31.13984 404.5568-186.75712 404.48-447.9232-6.99904-178.28864-149.64224-284.2624-175.64672-302.76096-97.11616-69.00224-212.25472-88.81152-220.16512-72.16128-11.99104 25.24672 238.3872 100.8384 288.32256 295.808 16.45056 64.22016 16.93696 125.53728 8.4992 183.14752-42.44992 157.80352-133.02272 216.43264-185.17504 249.16992s-264.5248 124.59008-264.5248 124.59008z" fill="#F9B50B" p-id="25027"></path>
  <path d="M913.5104 818.4832a660.04992 660.04992 0 0 1-66.00192 57.58976c-6.10816 3.60448-19.12832 2.56512-27.55072-5.85728a24.60672 24.60672 0 0 1 1.14176-35.8656c85.0688-65.9456 185.17504-176.14336 177.94048-326.89664-7.86432-163.92704-139.05408-265.20064-165.28896-283.8528-31.03232-22.04672-103.71072-73.73312-204.52352-67.73248-80.97792 4.78208-139.47392 43.79136-167.12704 66.64192-43.75552 36.11648-56.40192 68.85376-75.51488 118.35904-13.4912 34.93888-30.29504 78.43328-62.62272 133.94944-48.32768 82.84672-92.01152 125.45024-123.91424 156.55424s-46.61248 45.35808-47.21664 77.4656c-0.79872 44.7744 27.61216 94.55104 80.03584 139.94496 48.37888 41.89696 114.24768 76.97408 176.20992 93.85984 113.96096 31.03744 218.00448 0.54272 285.22496-30.52032 9.24672-4.24448 20.34176-2.59072 27.82208 4.8896a24.6016 24.6016 0 0 1-7.34208 39.85408c-45.47072 21.00736-91.94496 35.34848-137.9584 42.58304-61.63456 9.69216-122.42432 6.53824-180.66944-9.32864-69.77024-19.02592-141.01504-56.97536-195.52768-104.18176-29.75744-25.77408-53.1712-53.1712-69.64224-81.36704-18.69824-32.09728-27.91424-64.63488-27.34592-96.63488 0.95744-52.31616 27.90912-78.592 62.06976-111.89248 29.8752-29.12768 70.79424-69.05856 115.7632-146.10432 30.36672-52.05504 45.68064-91.74528 59.2896-126.85312 20.2752-52.61312 36.3264-94.20288 90.01984-138.51648 32.29184-26.65472 100.62336-72.21248 195.54304-77.824 118.14912-6.98368 203.71968 53.85216 235.9296 76.75392 16.04096 11.39712 57.62048 43.3664 97.3568 94.00832 54.89152 69.9392 84.67456 146.50368 88.57088 227.57376 3.82976 79.87712-18.27328 156.97408-65.63328 229.28384-17.73056 27.3152-40.8576 55.93088-67.36384 82.44224l-1.7664 1.75616 0.09216-0.08192z" fill="" p-id="25028"></path>
  <path d="M794.31168 912.1792a24.80128 24.80128 0 0 1-4.54144 3.57888l-3.6352 2.26304c-9.63072 5.94432-22.23104 4.75648-30.45376-3.46624a24.6272 24.6272 0 0 1 4.50048-38.37952l3.6096-2.24256c9.6256-5.94432 22.2208-4.76672 30.4384 3.456a24.6016 24.6016 0 0 1 0.01024 34.7904h0.07168z" fill="" p-id="25029"></path>
  <path d="M1066.2912 225.6128c-22.48192 17.3824-37.4784 55.07072-24.07936 76.40576 28.2624 44.97408 182.03136 16.22528 186.5216-18.45248 3.99872-31.0528-107.51488-100.43904-162.44224-57.95328z" fill="#6BE166" p-id="25030"></path>
  <path d="M1019.23328 313.36448l-0.25088-0.19456a55.69536 55.69536 0 0 1-13.39392-14.73536c-9.76896-15.58528-11.0848-36.61312-3.456-58.88 6.4512-18.816 18.5344-36.096 33.1264-47.37536 41.00096-31.71328 100.66944-17.1776 142.83776 7.00416 14.29504 8.20224 60.61056 37.61664 56.17664 71.91552-1.89952 14.71488-12.61568 27.36128-31.80544 37.5808-13.1584 7.00416-30.39232 12.96384-49.82784 17.23392-44.87168 9.87648-102.4256 11.19744-133.40672-12.54912z m152.28416-63.9744a155.44832 155.44832 0 0 0-48.82944-24.86784c-13.27104-4.1984-41.49248-10.24-59.52512 3.76832-15.5136 12.00128-24.28928 37.43232-18.71872 46.22336 2.57536 4.13696 14.6688 11.43808 43.3152 12.31872 42.68032 0.72192 84.46976-9.856 121.28256-31.07328-36.36736 17.6896-26.3168 12.19584-21.77024 8.86784-2.73408-3.91168-8.12032-9.38496-15.72864-15.22688l-0.0256-0.01024zM896.5376 202.63936s101.80096-188.09344 180.37248-182.17472c78.57664 5.92384 125.93664 80.94208 51.51744 105.62048s-206.34624 110.56128-211.97824 123.392c-5.63712 12.83072-34.95424-10.85952-34.95424-10.85952l15.04256-35.97824z" fill="" p-id="25031"></path>
  <path d="M465.5104 283.46368s6.13888 55.58272-29.86496 90.19392c0 0-8.7808 43.60192 43.09504-7.94112 18.42176-18.304 22.15936-30.70464 23.46496-54.82496 2.18624-40.21248-23.04-69.98016-36.69504-27.42784z" fill="#FFFFFF" p-id="25032"></path>
</svg>