<svg viewBox="0 0 1024 1024" version="1.1" fill="currentColor"
  xmlns="http://www.w3.org/2000/svg" width="1em" height="1em">
  <path d="M512 652.373333c-116.736 0-206.613333 53.333333-233.749333 115.072a104.704 104.704 0 0 0-9.237334 42.154667v13.44c0 5.376 4.245333 9.6 9.6 9.6h466.773334c5.376 0 9.6-4.245333 9.6-9.6v-13.44a103.893333 103.893333 0 0 0-9.237334-42.154667C718.613333 705.706667 628.757333 652.373333 512 652.373333z m-292.330667 89.301334C260.8 648.106667 380.864 588.373333 512 588.373333c131.157333 0 251.2 59.733333 292.330667 153.301334a167.893333 167.893333 0 0 1 14.656 67.925333v13.44a73.514667 73.514667 0 0 1-73.6 73.6H278.613333a73.514667 73.514667 0 0 1-73.6-73.6v-13.44c0-23.829333 5.376-46.784 14.656-67.925333zM512 202.666667a138.666667 138.666667 0 1 0 0 277.333333 138.666667 138.666667 0 0 0 0-277.333333zM309.333333 341.333333a202.666667 202.666667 0 1 1 405.333334 0 202.666667 202.666667 0 0 1-405.333334 0z"></path>
</svg>