<svg viewBox="0 0 1024 1024" version="1.1" fill="currentColor"
  xmlns="http://www.w3.org/2000/svg" width="1em" height="1em">
  <path d="M504.533333 352a10.752 10.752 0 0 1 15.146667 0l185.6 185.6a32 32 0 1 0 45.226667-45.226667l-185.6-185.6a74.752 74.752 0 0 0-105.6 0l-185.6 185.6a32 32 0 1 0 45.226666 45.226667l185.6-185.6z"></path>
  <path d="M504.533333 565.333333a10.752 10.752 0 0 1 15.146667 0l185.6 185.6a32 32 0 1 0 45.226667-45.226666l-185.6-185.6a74.752 74.752 0 0 0-105.6 0l-185.6 185.6a32 32 0 1 0 45.226666 45.226666l185.6-185.6z"></path>
</svg>