<svg viewBox="0 0 1024 1024" version="1.1" fill="currentColor" width="1em" height="1em"
  xmlns="http://www.w3.org/2000/svg">
  <path d="M138.666667 512c0-206.186667 167.146667-373.333333 373.333333-373.333333S885.333333 305.813333 885.333333 512 718.186667 885.333333 512 885.333333 138.666667 718.186667 138.666667 512z M512 266.666667a32 32 0 0 1 32 32v200.085333l111.36 111.36a32 32 0 0 1-45.226667 45.269333l-120.746666-120.746666-0.213334-0.213334A31.893333 31.893333 0 0 1 480 512V298.666667a32 32 0 0 1 32-32z" fill-rule="evenodd"></path>
  <!-- <path d="M512 138.666667C305.813333 138.666667 138.666667 305.813333 138.666667 512S305.813333 885.333333 512 885.333333 885.333333 718.186667 885.333333 512 718.186667 138.666667 512 138.666667zM202.666667 512c0-170.837333 138.496-309.333333 309.333333-309.333333S821.333333 341.162667 821.333333 512 682.837333 821.333333 512 821.333333 202.666667 682.837333 202.666667 512z"></path> -->
</svg>