<svg viewBox="0 0 1024 1024" version="1.1" fill="currentColor"
  xmlns="http://www.w3.org/2000/svg" width="1em" height="1em">
  <path d="M138.666667 512c0-206.186667 167.146667-373.333333 373.333333-373.333333S885.333333 305.813333 885.333333 512 718.186667 885.333333 512 885.333333 138.666667 718.186667 138.666667 512z M655.36 368.853333a32 32 0 0 1 0 45.248l-98.090667 98.005334L655.36 610.133333a32 32 0 0 1-45.226667 45.269334L512 557.333333l-98.133333 98.048a32 32 0 1 1-45.226667-45.269333l98.090667-98.005333-98.090667-98.005334a32 32 0 0 1 45.226667-45.269333l98.133333 98.048 98.133333-98.048a32 32 0 0 1 45.226667 0z" fill-rule="evenodd">
  </path>
</svg>
