<svg viewBox="0 0 1024 1024" version="1.1" width="1em" height="1em" fill="currentColor"
  xmlns="http://www.w3.org/2000/svg">
  <path d="M384 480a32 32 0 0 0 0 64h256a32 32 0 0 0 0-64H384zM352 373.333333A32 32 0 0 1 384 341.333333h256a32 32 0 0 1 0 64H384a32 32 0 0 1-32-32zM384 618.666667a32 32 0 0 0 0 64h192a32 32 0 0 0 0-64h-192z"></path>
  <path d="M309.333333 149.333333A117.312 117.312 0 0 0 192 266.666667v490.666666c0 64.810667 52.522667 117.333333 117.333333 117.333334h405.333334c64.810667 0 117.333333-52.522667 117.333333-117.333334v-490.666666C832 201.856 779.477333 149.333333 714.666667 149.333333h-405.333334zM256 266.666667c0-29.482667 23.850667-53.333333 53.333333-53.333334h405.333334c29.482667 0 53.333333 23.850667 53.333333 53.333334v490.666666c0 29.482667-23.850667 53.333333-53.333333 53.333334h-405.333334a53.312 53.312 0 0 1-53.333333-53.333334v-490.666666z"></path>
</svg>