<svg viewBox="0 0 1024 1024" version="1.1" fill="currentColor"
  xmlns="http://www.w3.org/2000/svg" width="1em" height="1em">
  <path d="M217.002667 746.666667l-76.501334-76.501334a42.666667 42.666667 0 0 1 60.330667-60.330666L277.333333 686.336l108.8-108.8a42.666667 42.666667 0 0 1 60.330667 0 213.333333 213.333333 0 1 0-58.325333-108.928 42.666667 42.666667 0 1 1-83.669334 16.682667 298.666667 298.666667 0 1 1 114.005334 180.565333L337.621333 746.666667l76.501334 76.501333a42.666667 42.666667 0 1 1-60.330667 60.330667L277.333333 806.997333l-76.501333 76.501334a42.666667 42.666667 0 1 1-60.330667-60.330667L217.002667 746.666667z"></path>
</svg>