<svg viewBox="0 0 1024 1024" version="1.1" fill="currentColor"
  xmlns="http://www.w3.org/2000/svg" width="1em" height="1em">
  <path d="M530.346667 336.213333a102.762667 102.762667 0 0 0-121.173334 101.12c0 17.706667 14.293333 32 32 32s32-14.293333 32-32c0-11.52 5.12-22.4 13.866667-29.653333 8.96-7.466667 20.48-10.453333 32.213333-8.32 15.146667 2.773333 28.16 15.573333 30.933334 30.72 3.84 21.76-9.6 37.76-23.68 43.306667-28.373333 11.306667-46.506667 37.12-46.506667 66.133333v25.6c0 17.706667 14.293333 32 32 32s32-14.293333 32-32v-25.6c0-2.986667 3.2-5.333333 6.186667-6.613333 45.653333-18.346667 71.68-65.066667 63.146666-113.92-7.466667-41.386667-41.6-75.52-82.986666-82.773334zM544 663.893333a32 32 0 1 1-64 0 32 32 0 0 1 64 0z"></path>
  <path d="M512 138.666667C306.133333 138.666667 138.666667 306.133333 138.666667 512S306.133333 885.333333 512 885.333333 885.333333 717.866667 885.333333 512 717.866667 138.666667 512 138.666667z m0 682.666666C341.333333 821.333333 202.666667 682.666667 202.666667 512S341.333333 202.666667 512 202.666667 821.333333 341.333333 821.333333 512 682.666667 821.333333 512 821.333333z"></path>
</svg>