<svg viewBox="0 0 1024 1024" version="1.1" fill="currentColor"
  xmlns="http://www.w3.org/2000/svg" width="1em" height="1em">
  <path d="M138.666667 512c0-206.186667 167.146667-373.333333 373.333333-373.333333S885.333333 305.813333 885.333333 512 718.186667 885.333333 512 885.333333 138.666667 718.186667 138.666667 512z M512 298.666667a32 32 0 0 1 32 32v234.666666a32 32 0 0 1-64 0v-234.666666A32 32 0 0 1 512 298.666667zM544 682.666667a32 32 0 1 1-64 0 32 32 0 0 1 64 0z" fill-rule="evenodd"></path>
  <!-- <path d="M138.666667 512c0-206.186667 167.146667-373.333333 373.333333-373.333333S885.333333 305.813333 885.333333 512 718.186667 885.333333 512 885.333333 138.666667 718.186667 138.666667 512zM512 202.666667C341.162667 202.666667 202.666667 341.162667 202.666667 512S341.162667 821.333333 512 821.333333 821.333333 682.837333 821.333333 512 682.837333 202.666667 512 202.666667z"></path> -->
</svg>