<svg viewBox="0 0 1024 1024" version="1.1" fill="currentColor"
  xmlns="http://www.w3.org/2000/svg" width="1em" height="1em">
  <path d="M725.333333 394.666667h-10.666666V341.333333c0-111.786667-90.88-202.666667-202.666667-202.666666s-202.666667 90.88-202.666667 202.666666v53.333334H298.666667c-52.906667 0-96 43.093333-96 96v298.666666c0 52.906667 43.093333 96 96 96h426.666666c52.906667 0 96-43.093333 96-96V490.666667c0-52.906667-43.093333-96-96-96zM373.333333 341.333333c0-76.373333 62.293333-138.666667 138.666667-138.666666s138.666667 62.293333 138.666667 138.666666v53.333334h-277.333334V341.333333z m384 448c0 17.706667-14.293333 32-32 32H298.666667c-17.706667 0-32-14.293333-32-32V490.666667c0-17.706667 14.293333-32 32-32h426.666666c17.706667 0 32 14.293333 32 32v298.666666z"></path>
  <path d="M512 542.08c-35.413333 0-64 28.586667-64 64 0 23.68 12.8 44.373333 32 55.466667v40.533333c0 17.706667 14.293333 32 32 32s32-14.293333 32-32v-40.533333a64.042667 64.042667 0 0 0-32-119.466667z"></path>
</svg>