<svg viewBox="0 0 1024 1024" version="1.1" fill="currentColor"
  xmlns="http://www.w3.org/2000/svg" width="1em" height="1em">
  <path d="M839.68 794.453333l-156.16-156.16C722.986667 589.013333 746.666667 526.506667 746.666667 458.666667 746.666667 299.946667 617.386667 170.666667 458.666667 170.666667S170.666667 299.946667 170.666667 458.666667 299.946667 746.666667 458.666667 746.666667c67.84 0 130.346667-23.68 179.626666-63.146667l156.16 156.16c6.186667 6.186667 14.506667 9.386667 22.613334 9.386667s16.426667-3.2 22.613333-9.386667c12.586667-12.373333 12.586667-32.64 0-45.226667zM234.666667 458.666667C234.666667 335.146667 335.146667 234.666667 458.666667 234.666667S682.666667 335.146667 682.666667 458.666667 582.186667 682.666667 458.666667 682.666667 234.666667 582.186667 234.666667 458.666667z"></path>
</svg>