<svg viewBox="0 0 1024 1024" version="1.1" fill="currentColor"
  xmlns="http://www.w3.org/2000/svg" width="1em" height="1em">
  <path d="M810.666667 273.664l-172.8 172.8a42.666667 42.666667 0 0 1-60.330667 0 213.333333 213.333333 0 1 0 58.325333 108.928 42.666667 42.666667 0 1 1 83.669334-16.682667 298.666667 298.666667 0 1 1-114.005334-180.565333L750.378667 213.333333H597.333333a42.666667 42.666667 0 0 1 0-85.333333h256a42.666667 42.666667 0 0 1 42.666667 42.666667v256a42.666667 42.666667 0 0 1-85.333333 0V273.664z"></path>
</svg>