<svg viewBox="0 0 1024 1024" version="1.1" width="1em" height="1em"
  xmlns="http://www.w3.org/2000/svg" fill="currentColor">
  <path d="M202.666667 512c0-170.837333 138.496-309.333333 309.333333-309.333333S821.333333 341.162667 821.333333 512 682.837333 821.333333 512 821.333333 202.666667 682.837333 202.666667 512zM512 138.666667C305.813333 138.666667 138.666667 305.813333 138.666667 512S305.813333 885.333333 512 885.333333 885.333333 718.186667 885.333333 512 718.186667 138.666667 512 138.666667z m-170.666667 341.333333a32 32 0 0 0 0 64h341.333334a32 32 0 0 0 0-64H341.333333z"></path>
</svg>