<svg t="1706844826675" class="icon" viewBox="0 0 1024 1024" version="1.1" width="1em" height="1em" fill="currentColor"
  xmlns="http://www.w3.org/2000/svg">
  <path d="M778.666667 352c0 58.88-47.786667 106.666667-106.666667 106.666667s-106.666667-47.786667-106.666667-106.666667 47.786667-106.666667 106.666667-106.666667 106.666667 47.786667 106.666667 106.666667z m-64 0c0-23.466667-19.2-42.666667-42.666667-42.666667s-42.666667 19.2-42.666667 42.666667 19.2 42.666667 42.666667 42.666667 42.666667-19.2 42.666667-42.666667z"></path>
  <path d="M298.666667 138.666667h426.666666c88.32 0 160 71.68 159.786667 160v426.88c0 8.32-0.853333 16.426667-2.133333 24.32a295.722667 295.722667 0 0 1-0.64 4.906666c-1.28 7.253333-3.2 14.506667-5.546667 21.333334l-0.384 1.152a161.92 161.92 0 0 1-9.642667 22.314666c-1.28 2.346667-2.773333 4.906667-4.266666 7.253334-2.56 4.266667-5.333333 8.533333-8.32 12.586666-1.706667 2.56-3.413333 4.906667-5.333334 7.253334-3.84 4.693333-7.893333 9.173333-12.373333 13.44l-7.04 6.4c-4.693333 4.053333-9.6 7.893333-14.933333 11.52-1.386667 1.066667-2.88 1.92-4.394667 2.794666l-1.792 1.045334c-5.12 3.2-10.453333 5.973333-16 8.533333-0.746667 0.32-1.450667 0.704-2.133333 1.066667s-1.386667 0.746667-2.133334 1.066666c-7.04 2.986667-14.506667 5.333333-21.973333 7.253334-0.853333 0.426667-1.706667 0.853333-2.773333 1.066666-0.512 0.106667-1.002667 0.149333-1.493334 0.213334-0.533333 0.042667-1.045333 0.106667-1.493333 0.213333a82.752 82.752 0 0 1-6.826667 1.28l-3.626666 0.64c-2.346667 0.426667-4.693333 0.853333-7.04 1.066667-3.2 0.469333-6.4 0.597333-9.6 0.725333l-3.2 0.128c-0.874667 0-1.706667 0.064-2.496 0.106667A31.957333 31.957333 0 0 1 725.333333 885.333333H298.666667c-88.32 0-160-71.68-160-160V298.666667c0-88.32 71.68-160 160-160z m426.666666 64H298.666667c-52.906667 0-96 43.093333-96 96v207.786666l44.8-44.8a116.48 116.48 0 0 1 82.986666-34.346666c31.146667 0 60.586667 12.16 82.773334 34.346666l136.533333 136.533334 36.48-36.48a116.48 116.48 0 0 1 82.986667-34.346667c31.36 0 60.8 12.16 82.986666 34.346667l69.12 69.12V298.666667c0-52.906667-43.093333-96-96-96z m93.226667 544.149333c0.341333-1.066667 0.704-2.154667 0.853333-3.349333 1.28-5.973333 1.92-11.946667 1.92-18.133334v-4.053333l-114.346666-114.346667c-20.053333-20.053333-55.466667-20.053333-75.52 0L417.066667 821.333333H725.333333c6.186667 0 12.16-0.64 18.133334-1.706666 0.32-0.106667 0.682667-0.170667 1.066666-0.213334a91.136 91.136 0 0 0 17.92-5.546666c0.213333-0.213333 0.213333-0.213333 0.426667-0.213334 11.306667-4.693333 21.333333-11.733333 29.866667-20.053333 0.32-0.32 0.597333-0.64 0.853333-0.96a13.802667 13.802667 0 0 1 0.853333-0.96c3.413333-3.413333 6.613333-7.253333 9.386667-11.306667l1.066667-1.706666 1.066666-1.706667c2.346667-3.626667 4.48-7.68 6.4-11.733333l1.92-4.48c1.493333-4.053333 2.773333-8.32 3.84-12.586667l0.426667-1.344zM202.666667 725.333333c0 52.906667 43.093333 96 96 96h27.946666l177.92-177.92-136.533333-136.533333c-20.266667-20.053333-55.253333-20.053333-75.306667 0L202.666667 596.906667V725.333333z"></path>
</svg>