<svg viewBox="0 0 1024 1024" version="1.1" width="1em" height="1em" fill="currentColor"
  xmlns="http://www.w3.org/2000/svg">
  <path d="M512 224c-78.506667 0-149.610667 31.36-201.6 82.325333a32 32 0 0 1-44.8-45.696A350.976 350.976 0 0 1 512 160c194.410667 0 352 157.589333 352 352a32 32 0 0 1-49.749333 26.624l-128-85.333333a32 32 0 0 1 35.498666-53.248l70.954667 47.317333C763.370667 319.424 648.832 224 512 224zM176.896 483.776a32 32 0 0 1 32.853333 1.6l128 85.333333a32 32 0 0 1-35.498666 53.248l-70.954667-47.317333C260.608 704.576 375.146667 800 512 800c78.506667 0 149.610667-31.36 201.6-82.325333a32 32 0 0 1 44.8 45.696A350.976 350.976 0 0 1 512 864c-194.410667 0-352-157.589333-352-352a32 32 0 0 1 16.896-28.224z"></path>
</svg>