<svg viewBox="0 0 1024 1024" version="1.1" width="1em" height="1em" fill="currentColor"
  xmlns="http://www.w3.org/2000/svg">
  <path d="M672.64 464a32 32 0 1 0-45.226667-45.226667l-167.253333 167.232-74.666667-74.666666a32 32 0 1 0-45.226666 45.269333l97.28 97.28a32 32 0 0 0 45.226666 0l189.866667-189.866667z"></path>
  <path d="M512 138.666667C305.813333 138.666667 138.666667 305.813333 138.666667 512S305.813333 885.333333 512 885.333333 885.333333 718.186667 885.333333 512 718.186667 138.666667 512 138.666667zM202.666667 512c0-170.837333 138.496-309.333333 309.333333-309.333333S821.333333 341.162667 821.333333 512 682.837333 821.333333 512 821.333333 202.666667 682.837333 202.666667 512z"></path>
</svg>