<svg viewBox="0 0 1024 1024" version="1.1" fill="currentColor" width="1em" height="1em"
  xmlns="http://www.w3.org/2000/svg">
  <path d="M810.666667 266.666667h-138.666667V256c0-52.906667-43.093333-96-96-96h-128c-52.906667 0-96 43.093333-96 96v10.666667H213.333333c-17.706667 0-32 14.293333-32 32s14.293333 32 32 32h32.853334l35.413333 425.813333c5.12 60.373333 56.32 107.52 116.906667 107.52h226.986666c60.586667 0 112-47.146667 116.906667-107.52l35.413333-425.813333H810.666667c17.706667 0 32-14.293333 32-32s-14.293333-32-32-32zM416 256c0-17.706667 14.293333-32 32-32h128c17.706667 0 32 14.293333 32 32v10.666667h-192V256z m262.613333 495.146667a53.717333 53.717333 0 0 1-53.12 48.853333H398.506667c-27.52 0-50.773333-21.546667-53.12-48.853333L310.4 330.666667h403.2l-34.986667 420.48z"></path>
  <path d="M576 661.333333h-128c-17.706667 0-32 14.293333-32 32S430.293333 725.333333 448 725.333333h128c17.706667 0 32-14.293333 32-32S593.706667 661.333333 576 661.333333z"></path>
</svg>