<svg xmlns="http://www.w3.org/2000/svg"
  xmlns:xlink="http://www.w3.org/1999/xlink" version="1.1" width="1em" height="1em" viewBox="0 0 20 20" fill-rule="evenodd" fill="currentColor">
  <path d="M4.1568603515625,18.333356494140624C3.0522913515625,18.333356494140624,2.1568603515625,17.437856494140625,2.1568603515625,16.333356494140624L2.1568603515625,3.666656494140625C2.1568603515625,2.562087494140625,3.0522913515625,1.666656494140625,4.1568603515625,1.666656494140625L15.8431603515625,1.666656494140625C16.9476603515625,1.666656494140625,17.8431603515625,2.562087494140625,17.8431603515625,3.666656494140625L17.8431603515625,16.333356494140624C17.8431603515625,17.437856494140625,16.9476603515625,18.333356494140624,15.8431603515625,18.333356494140624L4.1568603515625,18.333356494140624ZM6.3235303515625,5.833346494140625Q6.2269703515625,5.833346494140625,6.1322703515625,5.852176494140625Q6.0375603515625,5.871016494140625,5.9483503515625,5.907966494140625Q5.8591403515625,5.944926494140625,5.7788503515625,5.998566494140625Q5.6985703515625,6.052216494140625,5.6302903515625005,6.120496494140625Q5.5620103515625,6.188776494140625,5.5083603515625,6.269056494140625Q5.4547203515625,6.349346494140625,5.4177703515625,6.438556494140625Q5.3808103515625,6.527766494140625,5.3619803515625,6.622466494140625Q5.3431403515625,6.717176494140625,5.3431403515625,6.813736494140625Q5.3431403515625,6.910296494140625,5.3619803515625,7.004996494140625Q5.3808103515625,7.099706494140625,5.4177703515625,7.188916494140625Q5.4547203515625,7.278126494140625,5.5083603515625,7.358416494140625Q5.5620103515625,7.438696494140625,5.6302903515625005,7.506976494140625Q5.6985703515625,7.575256494140625,5.7788503515625,7.628896494140625Q5.8591403515625,7.682546494140625,5.9483503515625,7.719496494140625Q6.0375603515625,7.756456494140625,6.1322703515625,7.775286494140625Q6.2269703515625,7.794126494140625,6.3235303515625,7.794126494140625Q6.4200903515625,7.794126494140625,6.5148003515625,7.775286494140625Q6.6095003515625,7.756456494140625,6.6987103515625,7.719496494140625Q6.7879203515625,7.682546494140625,6.8682103515625,7.628896494140625Q6.9484903515625,7.575256494140625,7.0167703515625,7.506976494140625Q7.0850503515625,7.438696494140625,7.1387003515625,7.358416494140625Q7.1923403515625,7.278126494140625,7.2293003515625,7.188916494140625Q7.2662503515625,7.099706494140625,7.2850903515625,7.004996494140625Q7.3039203515625,6.910296494140625,7.3039203515625,6.813736494140625Q7.3039203515625,6.717176494140625,7.2850903515625,6.622466494140625Q7.2662503515625,6.527766494140625,7.2292903515625,6.438556494140625Q7.1923403515625,6.349346494140625,7.1387003515625,6.269056494140625Q7.0850503515625,6.188766494140625,7.0167703515625,6.120496494140625Q6.9484903515625,6.052216494140625,6.8682103515625,5.998566494140625Q6.7879203515625,5.944926494140625,6.6987103515625,5.907966494140625Q6.6095003515625,5.871016494140625,6.5148003515625,5.852176494140625Q6.4200903515625,5.833346494140625,6.3235303515625,5.833346494140625ZM9.019600351562499,7.549076494140625C8.6135003515625,7.549076494140625,8.2843003515625,7.219876494140625,8.2843003515625,6.813786494140625C8.2843003515625,6.407696494140625,8.6135003515625,6.078486494140625,9.019600351562499,6.078486494140625L13.9215603515625,6.078486494140625C14.3276603515625,6.078486494140625,14.6568603515625,6.407696494140625,14.6568603515625,6.813786494140625C14.6568603515625,7.219876494140625,14.3276603515625,7.549076494140625,13.9215603515625,7.549076494140625L9.019600351562499,7.549076494140625ZM6.3235303515625,9.019566494140625Q6.2269703515625,9.019566494140625,6.1322703515625,9.038396494140624Q6.0375603515625,9.057236494140625,5.9483503515625,9.094186494140626Q5.8591403515625,9.131136494140625,5.7788503515625,9.184786494140624Q5.6985703515625,9.238436494140625,5.6302903515625005,9.306716494140625Q5.5620103515625,9.374986494140625,5.5083603515625,9.455276494140625Q5.4547203515625,9.535566494140625,5.4177703515625,9.624776494140626Q5.3808103515625,9.713986494140626,5.3619803515625,9.808686494140625Q5.3431403515625,9.903396494140624,5.3431403515625,9.999956494140624Q5.3431403515625,10.096516494140625,5.3619803515625,10.191216494140624Q5.3808103515625,10.285926494140625,5.4177703515625,10.375136494140625Q5.4547203515625,10.464346494140624,5.5083603515625,10.544626494140624Q5.5620103515625,10.624916494140624,5.6302903515625005,10.693196494140626Q5.6985703515625,10.761476494140625,5.7788503515625,10.815116494140625Q5.8591403515625,10.868766494140624,5.9483503515625,10.905716494140625Q6.0375603515625,10.942666494140624,6.1322703515625,10.961506494140625Q6.2269703515625,10.980346494140624,6.3235303515625,10.980346494140624Q6.4200903515625,10.980346494140624,6.5148003515625,10.961506494140625Q6.6095003515625,10.942666494140624,6.6987103515625,10.905716494140625Q6.7879203515625,10.868766494140624,6.8682103515625,10.815116494140625Q6.9484903515625,10.761476494140625,7.0167703515625,10.693196494140626Q7.0850503515625,10.624916494140624,7.1387003515625,10.544626494140624Q7.1923403515625,10.464346494140624,7.2293003515625,10.375136494140625Q7.2662503515625,10.285926494140625,7.2850903515625,10.191216494140624Q7.3039203515625,10.096516494140625,7.3039203515625,9.999956494140624Q7.3039203515625,9.903396494140624,7.2850903515625,9.808686494140625Q7.2662503515625,9.713986494140626,7.2292903515625,9.624776494140626Q7.1923403515625,9.535566494140625,7.1387003515625,9.455276494140625Q7.0850503515625,9.374986494140625,7.0167703515625,9.306716494140625Q6.9484903515625,9.238436494140625,6.8682103515625,9.184786494140624Q6.7879203515625,9.131136494140625,6.6987103515625,9.094186494140626Q6.6095003515625,9.057236494140625,6.5148003515625,9.038396494140624Q6.4200903515625,9.019566494140625,6.3235303515625,9.019566494140625ZM9.019600351562499,10.735326494140624C8.6135003515625,10.735326494140624,8.2843003515625,10.406126494140626,8.2843003515625,10.000036494140625C8.2843003515625,9.593946494140624,8.6135003515625,9.264736494140625,9.019600351562499,9.264736494140625L13.9215603515625,9.264736494140625C14.3276603515625,9.264736494140625,14.6568603515625,9.593946494140624,14.6568603515625,10.000036494140625C14.6568603515625,10.406126494140626,14.3276603515625,10.735326494140624,13.9215603515625,10.735326494140624L9.019600351562499,10.735326494140624ZM6.3235303515625,12.205856494140624Q6.2269703515625,12.205856494140624,6.1322703515625,12.224656494140625Q6.0375603515625,12.243456494140625,5.9483503515625,12.280456494140624Q5.8591403515625,12.317356494140626,5.7788503515625,12.371056494140625Q5.6985703515625,12.424656494140624,5.6302903515625005,12.492956494140625Q5.5620103515625,12.561256494140626,5.5083603515625,12.641556494140625Q5.4547203515625,12.721856494140624,5.4177703515625,12.811056494140624Q5.3808103515625,12.900256494140624,5.3619803515625,12.994956494140625Q5.3431403515625,13.089656494140625,5.3431403515625,13.186156494140626Q5.3431403515625,13.282756494140624,5.3619803515625,13.377456494140626Q5.3808103515625,13.472156494140625,5.4177703515625,13.561356494140625Q5.4547203515625,13.650556494140625,5.5083603515625,13.730856494140625Q5.5620103515625,13.811156494140626,5.6302903515625005,13.879456494140625Q5.6985703515625,13.947756494140625,5.7788503515625,14.001356494140625Q5.8591403515625,14.055056494140626,5.9483503515625,14.091956494140625Q6.0375603515625,14.128956494140626,6.1322703515625,14.147756494140625Q6.2269703515625,14.166556494140625,6.3235303515625,14.166556494140625Q6.4200903515625,14.166556494140625,6.5148003515625,14.147756494140625Q6.6095003515625,14.128956494140626,6.6987103515625,14.091956494140625Q6.7879203515625,14.055056494140626,6.8682103515625,14.001356494140625Q6.9484903515625,13.947756494140625,7.0167703515625,13.879456494140625Q7.0850503515625,13.811156494140626,7.1387003515625,13.730856494140625Q7.1923403515625,13.650556494140625,7.2293003515625,13.561356494140625Q7.2662503515625,13.472156494140625,7.2850903515625,13.377456494140626Q7.3039203515625,13.282756494140624,7.3039203515625,13.186156494140626Q7.3039203515625,13.089656494140625,7.2850903515625,12.994956494140625Q7.2662503515625,12.900256494140624,7.2292903515625,12.811056494140624Q7.1923403515625,12.721856494140624,7.1387003515625,12.641556494140625Q7.0850503515625,12.561256494140626,7.0167703515625,12.492956494140625Q6.9484903515625,12.424656494140624,6.8682103515625,12.371056494140625Q6.7879203515625,12.317356494140626,6.6987103515625,12.280456494140624Q6.6095003515625,12.243456494140625,6.5148003515625,12.224656494140625Q6.4200903515625,12.205856494140624,6.3235303515625,12.205856494140624ZM9.019600351562499,13.921556494140624C8.6135003515625,13.921556494140624,8.2843003515625,13.592356494140626,8.2843003515625,13.186256494140626C8.2843003515625,12.780156494140625,8.6135003515625,12.450956494140625,9.019600351562499,12.450956494140625L13.9215603515625,12.450956494140625C14.3276603515625,12.450956494140625,14.6568603515625,12.780156494140625,14.6568603515625,13.186256494140626C14.6568603515625,13.592356494140626,14.3276603515625,13.921556494140624,13.9215603515625,13.921556494140624L9.019600351562499,13.921556494140624Z" />
</svg>