<svg xmlns="http://www.w3.org/2000/svg"
  xmlns:xlink="http://www.w3.org/1999/xlink" fill="currentColor" version="1.1" width="1em" height="1em" viewBox="0 0 20 20">
  <path d="M10.83335701171875,17.5L10.83335701171875,19.1667L9.16668701171875,19.1667L9.16668701171875,17.5L2.50002001171875,17.5C2.03978301171875,17.5,1.66668701171875,17.1269,1.66668701171875,16.6667L1.66668701171875,5L18.33338701171875,5L18.33338701171875,16.6667C18.33338701171875,17.1269,17.96028701171875,17.5,17.49998701171875,17.5L10.83335701171875,17.5ZM6.66668701171875,8.33333C5.2859770117187495,8.33333,4.16668701171875,9.45262,4.16668701171875,10.83333C4.16668701171875,12.21405,5.2859770117187495,13.3333,6.66668701171875,13.3333C8.04739701171875,13.3333,9.16668701171875,12.21405,9.16668701171875,10.83333L6.66668701171875,10.83333L6.66668701171875,8.33333ZM10.83335701171875,8.33333L10.83335701171875,10L15.83338701171875,10L15.83338701171875,8.33333L10.83335701171875,8.33333ZM10.83335701171875,11.66667L10.83335701171875,13.3333L15.83338701171875,13.3333L15.83338701171875,11.66667L10.83335701171875,11.66667ZM1.66668701171875,2.5L18.33338701171875,2.5L18.33338701171875,4.16667L1.66668701171875,4.16667L1.66668701171875,2.5Z" />
</svg>