<svg version="1.1" width="254" height="294" viewBox="0 0 254 294">
  <defs>
    <clipPath id="master_svg0_20062_015888">
      <rect x="0" y="0" width="254" height="294" rx="0"/>
    </clipPath>
    <linearGradient x1="0.5" y1="0" x2="0.5" y2="1" id="master_svg1_20062_011188">
      <stop offset="0%" stop-color="#D8D8D8" stop-opacity="1"/>
      <stop offset="100%" stop-color="#FFFFFF" stop-opacity="0"/>
    </linearGradient>
    <linearGradient x1="0.10348694771528244" y1="0.8235872387886047" x2="0.8967307209968567" y2="0.35489511489868164" id="master_svg2_20062_013346">
      <stop offset="0%" stop-color="#F1F1F1" stop-opacity="1"/>
      <stop offset="100%" stop-color="#E1E1E1" stop-opacity="1"/>
    </linearGradient>
    <linearGradient x1="0.27747780084609985" y1="0.7092941999435425" x2="0.7633915543556213" y2="0.3434890806674957" id="master_svg3_20062_015731">
      <stop offset="0%" stop-color="#FFFFFF" stop-opacity="1"/>
      <stop offset="100%" stop-color="#E9E9E9" stop-opacity="1"/>
    </linearGradient>
    <linearGradient x1="0.5" y1="-3.0616171314629196e-17" x2="0.5" y2="1" id="master_svg4_20062_015265">
      <stop offset="0%" stop-color="#D5D5D5" stop-opacity="1"/>
      <stop offset="100%" stop-color="#E9E9E9" stop-opacity="1"/>
    </linearGradient>
    <linearGradient x1="0.5" y1="-3.0616171314629196e-17" x2="0.5" y2="1" id="master_svg5_20062_015785">
      <stop offset="0%" stop-color="#D5D5D5" stop-opacity="1"/>
      <stop offset="100%" stop-color="#FFFAFA" stop-opacity="1"/>
    </linearGradient>
  </defs>
  <g>
    <path d="M221.989,226.23074674072265Q222,225.94234674072266,222,225.65384674072266Q222,224.73324674072265,221.886,223.81384674072265Q221.771,222.89434674072265,221.543,221.97824674072265Q221.314,221.06204674072265,220.972,220.15144674072266Q220.63,219.24084674072265,220.175,218.33794674072266Q219.72,217.43504674072267,219.153,216.54204674072267Q218.586,215.64914674072264,217.909,214.76814674072267Q217.232,213.88724674072265,216.447,213.02044674072266Q215.661,212.15374674072265,214.769,211.30324674072267Q213.876,210.45274674072266,212.879,209.62054674072266Q211.882,208.78834674072266,210.782,207.97644674072265Q209.683,207.16454674072264,208.484,206.37494674072266Q207.285,205.58534674072266,205.99,204.81994674072266Q204.694,204.05454674072266,203.305,203.31514674072267Q201.915,202.57574674072265,200.436,201.86414674072265Q198.956,201.15244674072267,197.39,200.47034674072265Q195.824,199.78824674072266,194.175,199.13734674072265Q192.526,198.48644674072267,190.798,197.86817674072265Q189.07,197.24995674072267,187.267,196.66595674072266Q185.465,196.08194674072266,183.591,195.53356674072265Q181.718,194.98517674072266,179.779,194.47373674072264Q177.84,193.96228674072265,175.84,193.48902674072266Q173.839,193.01575674072265,171.783,192.58179674072267Q169.726,192.14784674072266,167.618,191.75424674072266Q165.509,191.36064674072264,163.355,191.00836674072266Q161.2,190.65607674072265,159.005,190.34594674072267Q156.809,190.03581674072265,154.577,189.76858674072267Q152.345,189.50135674072266,150.083,189.27767674072265Q147.821,189.05399374072266,145.534,188.87439874072265Q143.24599999999998,188.69480374072265,140.939,188.55972774072265Q138.63299999999998,188.42465174072265,136.312,188.33441974072267Q133.99099999999999,188.24418754072266,131.66140000000001,188.19901714072265Q129.3321,188.15384674072266,127,188.15384674072266Q124.6679,188.15384674072266,122.3386,188.19901714072265Q120.0093,188.24418754072266,117.6884,188.33441974072267Q115.3675,188.42465174072265,113.0606,188.55972774072265Q110.7537,188.69480374072265,108.4664,188.87439874072265Q106.1791,189.05399374072266,103.9169,189.27767674072265Q101.6546,189.50135674072266,99.423,189.76858674072267Q97.1913,190.03581674072265,94.99549999999999,190.34594674072267Q92.7997,190.65607674072265,90.6451,191.00836674072266Q88.4905,191.36064674072264,86.3823,191.75424674072266Q84.2741,192.14784674072266,82.2173,192.58179674072267Q80.1606,193.01575674072265,78.1602,193.48902674072266Q76.1599,193.96229674072265,74.2208,194.47373674072264Q72.2817,194.98517674072266,70.4086,195.53356674072265Q68.53540000000001,196.08194674072266,66.73259999999999,196.66595674072266Q64.9299,197.24995674072267,63.201899999999995,197.86817674072265Q61.4739,198.48644674072267,59.8249,199.13734674072265Q58.175799999999995,199.78824674072266,56.6096,200.47034674072265Q55.0435,201.15244674072267,53.564,201.86414674072265Q52.0845,202.57574674072265,50.6953,203.31514674072267Q49.306,204.05454674072266,48.010400000000004,204.81994674072266Q46.7147,205.58534674072266,45.5158,206.37494674072266Q44.3168,207.16454674072264,43.2175,207.97644674072265Q42.1181,208.78834674072266,41.12102,209.62054674072266Q40.12391,210.45274674072266,39.23144,211.30324674072267Q38.33898,212.15374674072265,37.553309999999996,213.02044674072266Q36.76765,213.88724674072265,36.09067,214.76814674072267Q35.41369,215.64914674072264,34.847030000000004,216.54204674072267Q34.28037,217.43504674072267,33.8254,218.33794674072266Q33.37042,219.24084674072265,33.02823,220.15144674072266Q32.686039,221.06204674072265,32.457451,221.97824674072265Q32.228863,222.89434674072265,32.114432,223.81384674072265Q32,224.73324674072265,32,225.65384674072266Q32,225.94234674072266,32.0112425,226.23074674072265L221.989,226.23074674072265Z" fill-rule="evenodd" fill="url(#master_svg1_20062_011188)" fill-opacity="1"/>
  </g>
  <g>
    <g></g>
    <g>
      <path d="M154.9365244781494,111.0547680847168C176.9472244781494,133.6227680847168,186.6103244781494,159.71736808471678,176.51652447814942,169.8111680847168C176.51652447814942,169.8111680847168,176.36922447814942,169.9551680847168,176.36922447814942,169.9551680847168C176.36922447814942,169.9551680847168,176.2422244781494,170.0763680847168,176.2422244781494,170.0763680847168C176.20342447814943,170.12386808471678,176.15932447814941,170.1679680847168,176.11512447814943,170.21216808471678C160.8446244781494,185.4830680847168,137.8731244781494,188.84306808471678,117.69762447814941,180.7366680847168C117.69762447814941,180.7366680847168,123.03002447814941,199.4320680847168,123.03002447814941,199.4320680847168C123.71862447814942,201.8460680847168,122.31962447814942,204.3610680847168,119.90542447814941,205.0490680847168C119.50002447814941,205.16506808471678,119.08062447814942,205.2230680847168,118.6590244781494,205.2230680847168C118.6590244781494,205.2230680847168,91.73762447814941,205.21806808471678,91.73762447814941,205.21806808471678C90.58632447814941,205.2200680847168,89.47772447814941,204.7830680847168,88.63692447814941,203.9960680847168C88.63692447814941,203.9960680847168,88.52270447814942,203.88606808471678,88.52270447814942,203.88606808471678C87.69983447814941,203.0630680847168,87.19087447814941,201.92706808471678,87.19058447814942,200.6710680847168C87.19058447814942,200.25006808471682,87.24900447814942,199.83106808471678,87.36435447814941,199.4250680847168C87.36435447814941,199.4250680847168,93.84562447814942,176.66526808471679,93.84562447814942,176.66526808471679C93.84562447814942,176.66526808471679,96.67232447814942,166.7384680847168,96.67232447814942,166.7384680847168C96.67232447814942,166.7384680847168,96.11192447814942,166.17126808471681,96.11192447814942,166.17126808471681C73.93215447814941,143.3205680847168,72.66884447814941,108.30496808471679,93.43822447814941,87.53549808471679C93.43822447814941,87.53549808471679,93.56682447814941,87.4170580847168,93.56682447814941,87.4170580847168C93.56682447814941,87.4170580847168,93.63702447814941,87.3416480847168,93.63702447814941,87.3416480847168C93.7027244781494,87.2709780847168,93.77112447814942,87.2027480847168,93.83962447814942,87.1342380847168C103.93362447814941,77.0402280847168,130.02772447814942,86.7032780847168,152.5957244781494,108.7139680847168C152.5957244781494,108.7139680847168,119.59292447814941,137.2416680847168,119.59292447814941,137.2416680847168C119.59292447814941,137.2416680847168,119.47392447814941,137.3481680847168,119.47392447814941,137.3481680847168C117.56632447814941,139.1080680847168,117.38802447814942,142.0779680847168,119.09842447814941,144.0565680847168C119.17492447814942,144.1448680847168,119.25452447814942,144.2306680847168,119.33732447814941,144.3131680847168C121.22432447814941,146.2005680847168,124.28342447814941,146.2009680847168,126.16992447814941,144.3143680847168C126.16992447814941,144.3143680847168,126.29162447814942,144.1881680847168,126.29162447814942,144.1881680847168C126.29162447814942,144.1881680847168,126.40882447814941,144.0577680847168,126.40882447814941,144.0577680847168C126.40882447814941,144.0577680847168,154.9365244781494,111.05496808471679,154.9365244781494,111.05496808471679C154.9365244781494,111.05496808471679,154.9365244781494,111.0547680847168,154.9365244781494,111.0547680847168Z" fill="url(#master_svg2_20062_013346)" fill-opacity="1"/>
    </g>
    <g>
      <path d="M161.43875329284668,101.07126808471679C160.4527532928467,99.5602680847168,160.6230532928467,97.5159680847168,161.94905329284668,96.18986808471679C163.47045329284668,94.6682680847168,165.9375532928467,94.66886808471679,167.45985329284667,96.1907680847168C168.9817532928467,97.7128680847168,168.98215329284668,100.1801680847168,167.4606532928467,101.7016680847168C166.13475329284668,103.02756808471679,164.09055329284666,103.1976680847168,162.5793532928467,102.2119680847168C162.5793532928467,102.2119680847168,126.68105329284668,143.7425680847168,126.68105329284668,143.7425680847168C126.68105329284668,143.7425680847168,154.93655329284667,111.0547680847168,154.93655329284667,111.0547680847168C176.94725329284668,133.6227680847168,186.6103532928467,159.7172680847168,176.51655329284668,169.8111680847168C166.24655329284667,180.08106808471678,139.4131532928467,169.8985680847168,116.58235329284668,147.0681680847168C93.75192329284668,124.2375680847168,83.56950329284668,97.40426808471679,93.83961329284668,87.1342380847168C103.93355329284668,77.0402280847168,130.02765329284668,86.7032780847168,152.59575329284667,108.7138680847168C152.59575329284667,108.7138680847168,119.59285329284668,137.2416680847168,119.59285329284668,137.2416680847168C119.59285329284668,137.2416680847168,161.43875329284668,101.07126808471679,161.43875329284668,101.07126808471679C161.43875329284668,101.07126808471679,161.43875329284668,101.07126808471679,161.43875329284668,101.07126808471679C161.43875329284668,101.07126808471679,161.43875329284668,101.07126808471679,161.43875329284668,101.07126808471679Z" fill="url(#master_svg3_20062_015731)" fill-opacity="1"/>
    </g>
    <g>
      <path d="M167.45975429382324,96.19082463623047C168.98165429382323,97.71289463623047,168.98245429382325,100.18025463623047,167.46055429382324,101.70173463623047C166.13465429382325,103.02766463623047,164.09045429382326,103.19771463623047,162.57975429382324,102.21201463623046C162.57975429382324,102.21201463623046,126.40867429382324,144.05776463623047,126.40867429382324,144.05776463623047C126.33222429382324,144.14606463623048,126.25260429382324,144.23186463623045,126.16997429382324,144.31476463623048C124.28342429382324,146.20096463623048,121.22428429382325,146.20056463623047,119.33717429382324,144.31306463623048C119.25447429382324,144.23056463623047,119.17480429382324,144.14476463623046,119.09832429382324,144.05646463623046C117.35298629382324,142.03746463623048,117.57423829382324,138.98626463623046,119.59274429382324,137.24166463623047C119.59274429382324,137.24166463623047,161.43865429382325,101.07132463623047,161.43865429382325,101.07132463623047C160.45265429382323,99.56036463623047,160.62295429382323,97.51602463623047,161.94895429382325,96.18996463623047C163.47035429382325,94.66833163623046,165.93745429382324,94.66890863623047,167.45975429382324,96.19082463623047C167.45975429382324,96.19082463623047,167.45975429382324,96.19082463623047,167.45975429382324,96.19082463623047C167.45975429382324,96.19082463623047,167.45975429382324,96.19082463623047,167.45975429382324,96.19082463623047Z" fill="url(#master_svg4_20062_015265)" fill-opacity="1"/>
    </g>
    <g>
      <path d="M113.03367825927734,164.40325888427734C113.03367825927734,164.40325888427734,123.02027825927735,199.42101888427734,123.02027825927735,199.42101888427734C123.70867825927735,201.83501888427736,122.30917825927735,204.34991888427734,119.89397825927735,205.03841888427735C119.48857825927735,205.15391888427735,119.06907825927735,205.21251888427736,118.64747825927734,205.21251888427736C118.64747825927734,205.21251888427736,91.72113825927734,205.21251888427736,91.72113825927734,205.21251888427736C89.21008825927734,205.21251888427736,87.17427825927734,203.17741888427736,87.17427825927734,200.66711888427733C87.17427825927734,200.24581888427736,87.23283495927734,199.82671888427734,87.34822025927734,199.42151888427736C87.34822025927734,199.42151888427736,97.28187825927735,164.57140888427733,97.28187825927735,164.57140888427733C98.28717825927734,161.04411888427734,101.48857825927735,158.59407318427733,105.15727825927735,158.54416923527734C108.80527825927734,158.49469818427735,112.03347825927735,160.89600888427734,113.03367825927734,164.40325888427734C113.03367825927734,164.40325888427734,113.03367825927734,164.40325888427734,113.03367825927734,164.40325888427734C113.03367825927734,164.40325888427734,113.03367825927734,164.40325888427734,113.03367825927734,164.40325888427734Z" fill="url(#master_svg5_20062_015785)" fill-opacity="1"/>
    </g>
    <g>
      <path d="M101.43828010559082,166.42610899658203C101.43828010559082,167.45936899658204,101.84889710559082,168.45034899658202,102.57980010559082,169.18097899658204C103.31070010559083,169.91159899658203,104.30203010559082,170.32207899658204,105.33569010559081,170.32207899658204C106.36935010559083,170.32207899658204,107.36066010559082,169.91159899658203,108.09157010559082,169.18097899658204C108.82248010559081,168.45034899658202,109.23309010559082,167.45936899658204,109.23309010559082,166.42610899658203C109.23309010559082,165.39283899658204,108.82248010559081,164.40188899658204,108.09157010559082,163.67125899658203C107.36066010559082,162.94062399658202,106.36935010559083,162.53015899658206,105.33569010559081,162.53015899658203C104.30203010559082,162.53015899658206,103.31070010559083,162.94062399658202,102.57980010559082,163.67125899658203C101.84889710559082,164.40188899658204,101.43828010559082,165.39283899658204,101.43828010559082,166.42610899658203C101.43828010559082,166.42610899658203,101.43828010559082,166.42610899658203,101.43828010559082,166.42610899658203Z" fill="#FFFFFF" fill-opacity="1"/>
    </g>
    <g>
      <path d="M186.56726549987792,98.65863084259033C186.56726549987792,110.76363084259033,176.85236549987792,120.59963084259033,164.79396549987794,120.79513084259034C164.79396549987794,120.79513084259034,164.42786549987792,120.79803084259032,164.42786549987792,120.79803084259032C164.42786549987792,120.79803084259032,164.42786549987792,118.19323084259034,164.42786549987792,118.19323084259034C175.10876549987793,118.19323084259034,183.78756549987793,109.62153084259033,183.95996549987794,98.98173084259034C183.95996549987794,98.98173084259034,183.96246549987794,98.65863084259033,183.96246549987794,98.65863084259033C183.96246549987794,98.65863084259033,186.56726549987792,98.65863084259033,186.56726549987792,98.65863084259033C186.56726549987792,98.65863084259033,186.56726549987792,98.65863084259033,186.56726549987792,98.65863084259033C186.56726549987792,98.65863084259033,186.56726549987792,98.65863084259033,186.56726549987792,98.65863084259033ZM180.65386549987792,98.94713084259033C180.65386549987792,107.81873084259033,173.53376549987792,115.02753084259032,164.69616549987794,115.17093084259034C164.69616549987794,115.17093084259034,164.42786549987792,115.17313084259033,164.42786549987792,115.17313084259033C164.42786549987792,115.17313084259033,164.42786549987792,112.57693084259033,164.42786549987792,112.57693084259033C171.87946549987794,112.57693084259033,177.93426549987794,106.59723084259033,178.05586549987794,99.17473084259034C178.05586549987794,99.17473084259034,178.05766549987794,98.94713084259033,178.05766549987794,98.94713084259033C178.05766549987794,98.94713084259033,180.65386549987792,98.94713084259033,180.65386549987792,98.94713084259033C180.65386549987792,98.94713084259033,180.65386549987792,98.94713084259033,180.65386549987792,98.94713084259033ZM174.01926549987792,98.65863084259033C174.01926549987792,103.96733084259033,169.77026549987792,108.28373084259033,164.48736549987794,108.39223084259034C164.48736549987794,108.39223084259034,164.28366549987794,108.39423084259033,164.28366549987794,108.39423084259033C164.28366549987794,108.39423084259033,164.28366549987794,105.79813084259033,164.28366549987794,105.79813084259033C168.16406549987792,105.79813084259033,171.32136549987794,102.70233084259033,171.42056549987794,98.84583084259033C171.42056549987794,98.84583084259033,171.42306549987794,98.65863084259033,171.42306549987794,98.65863084259033C171.42306549987794,98.65863084259033,174.01926549987792,98.65863084259033,174.01926549987792,98.65863084259033C174.01926549987792,98.65863084259033,174.01926549987792,98.65863084259033,174.01926549987792,98.65863084259033ZM164.42786549987792,82.72115084259033C164.42786549987792,82.72115084259033,164.42786549987792,85.31732084259033,164.42786549987792,85.31732084259033C156.97636549987794,85.31732084259033,150.92153549987793,91.29693084259033,150.79995549987794,98.71953084259033C150.79995549987794,98.71953084259033,150.79810549987792,98.94713084259033,150.79810549987792,98.94713084259033C150.79810549987792,98.94713084259033,148.20193549987792,98.94713084259033,148.20193549987792,98.94713084259033C148.20193549987792,89.98573084259033,155.46656549987793,82.72115084259033,164.42786549987792,82.72115084259033C164.42786549987792,82.72115084259033,164.42786549987792,82.72115084259033,164.42786549987792,82.72115084259033ZM164.28366549987794,88.92303084259034C164.28366549987794,88.92303084259034,164.28366549987794,91.51923084259033,164.28366549987794,91.51923084259033C160.40326549987793,91.51923084259033,157.24586549987794,94.61503084259033,157.14666549987794,98.47143084259034C157.14666549987794,98.47143084259034,157.14426549987792,98.65863084259033,157.14426549987792,98.65863084259033C157.14426549987792,98.65863084259033,154.54806549987794,98.65863084259033,154.54806549987794,98.65863084259033C154.54806549987794,93.28173084259033,158.90676549987793,88.92303084259034,164.28366549987794,88.92303084259034C164.28366549987794,88.92303084259034,164.28366549987794,88.92303084259034,164.28366549987794,88.92303084259034ZM164.42786549987792,76.51923084259033C164.42786549987792,76.51923084259033,164.42786549987792,79.12389084259033,164.42786549987792,79.12389084259033C153.74706549987792,79.12389084259033,145.06822549987794,87.69583084259034,144.89572549987793,98.33553084259033C144.89572549987793,98.33553084259033,144.89313549987793,98.65863084259033,144.89313549987793,98.65863084259033C144.89313549987793,98.65863084259033,142.28846549987793,98.65863084259033,142.28846549987793,98.65863084259033C142.28846549987793,86.43137084259033,152.20060549987792,76.51923084259033,164.42786549987792,76.51923084259033C164.42786549987792,76.51923084259033,164.42786549987792,76.51923084259033,164.42786549987792,76.51923084259033Z" fill="#D5D5D5" fill-opacity="1"/>
    </g>
  </g>
</svg>