<svg fill="none" width="254" height="294" viewBox="0 0 254 294">
  <defs>
    <clipPath id="master_svg0_20062_015840">
      <rect x="0" y="0" width="254" height="294" rx="0"/>
    </clipPath>
    <linearGradient x1="0.5" y1="0" x2="0.5" y2="1" id="master_svg1_20062_011188">
      <stop offset="0%" stop-color="#D8D8D8" stop-opacity="1"/>
      <stop offset="100%" stop-color="#FFFFFF" stop-opacity="0"/>
    </linearGradient>
    <linearGradient x1="0.7400597929954529" y1="1" x2="0.9530773758888245" y2="0.09132487326860428" id="master_svg2_20062_014917">
      <stop offset="0%" stop-color="#F1F1F1" stop-opacity="1"/>
      <stop offset="100%" stop-color="#E1E1E1" stop-opacity="1"/>
    </linearGradient>
    <linearGradient x1="0.5" y1="1" x2="0.5" y2="0" id="master_svg3_24423_007630">
      <stop offset="0%" stop-color="#FAFAFA" stop-opacity="1"/>
      <stop offset="100%" stop-color="#FFFFFF" stop-opacity="1"/>
    </linearGradient>
  </defs>
  <g>
    <path d="M226.988,225.53832578125Q227,225.24992578125,227,224.96142578125Q227,224.04082578125,226.88,223.12142578125Q226.759,222.20192578125,226.518,221.28582578125Q226.278,220.36962578125,225.918,219.45902578125Q225.557,218.54842578125,225.079,217.64552578125Q224.6,216.74262578125,224.003,215.84962578125Q223.407,214.95672578125,222.694,214.07572578125001Q221.981,213.19482578125,221.154,212.32802578125Q220.327,211.46132578125,219.388,210.61082578125Q218.448,209.76032578125,217.399,208.92812578125Q216.349,208.09592578125,215.192,207.28402578125Q214.035,206.47212578124999,212.773,205.68252578125Q211.511,204.89292578125,210.147,204.12752578125Q208.783,203.36212578125,207.321,202.62272578125Q205.858,201.88332578125,204.301,201.17172578125Q202.744,200.46002578125,201.095,199.77792578125Q199.447,199.09582578125,197.711,198.44492578125Q195.975,197.79402578125,194.156,197.17575578125Q192.337,196.55753578125,190.439,195.97353578125Q188.542,195.38952578125,186.57,194.84114578125Q184.598,194.29275578125,182.557,193.78131578125Q180.516,193.26986578125,178.41,192.79660578125Q176.305,192.32333578125,174.14,191.88937578125Q171.975,191.45542578125,169.756,191.06182578125Q167.536,190.66822578125,165.268,190.31594578125Q163,189.96365578125,160.689,189.65352578125Q158.378,189.34339578125,156.028,189.07616578125Q153.679,188.80893578125,151.298,188.58525578125Q148.917,188.36157278125,146.50900000000001,188.18197778125Q144.101,188.00238278125,141.673,187.86730678125Q139.245,187.73223078125,136.80200000000002,187.64199878125Q134.35899999999998,187.55176658125,131.90699999999998,187.50659618125Q129.45499999999998,187.46142578125,127,187.46142578125Q124.5451,187.46142578125,122.0932,187.50659618125Q119.6413,187.55176658125,117.1983,187.64199878125Q114.7552,187.73223078125,112.327,187.86730678125Q109.8987,188.00238278125,107.491,188.18197778125Q105.0833,188.36157278125,102.702,188.58525578125Q100.3207,188.80893578125,97.9715,189.07616578125Q95.6224,189.34339578125,93.311,189.65352578125Q90.9996,189.96365578125,88.73169999999999,190.31594578125Q86.4637,190.66822578125,84.2445,191.06182578125Q82.0253,191.45542578125,79.8603,191.88937578125Q77.6953,192.32333578125,75.5897,192.79660578125Q73.4841,193.26987578125,71.443,193.78131578125Q69.40180000000001,194.29275578125,67.43010000000001,194.84114578125Q65.45830000000001,195.38952578125,63.5607,195.97353578125Q61.663,196.55753578125,59.8441,197.17575578125Q58.0252,197.79402578125,56.2893,198.44492578125Q54.5535,199.09582578125,52.9049,199.77792578125Q51.256299999999996,200.46002578125,49.699,201.17172578125Q48.1416,201.88332578125,46.6792,202.62272578125Q45.216899999999995,203.36212578125,43.853,204.12752578125Q42.4892,204.89292578125,41.2271,205.68252578125Q39.9651,206.47212578124999,38.807900000000004,207.28402578125Q37.6507,208.09592578125,36.60107,208.92812578125Q35.55148,209.76032578125,34.612049999999996,210.61082578125Q33.67261,211.46132578125,32.84559,212.32802578125Q32.01857,213.19482578125,31.305970000000002,214.07572578125001Q30.59336,214.95672578125,29.99687,215.84962578125Q29.40039,216.74262578125,28.92147,217.64552578125Q28.44255,218.54842578125,28.082349999999998,219.45902578125Q27.722146,220.36962578125,27.481527,221.28582578125Q27.240909,222.20192578125,27.120454,223.12142578125Q27,224.04082578125,27,224.96142578125Q27.00000000000002,225.24992578125,27.0118343,225.53832578125L226.988,225.53832578125Z" fill-rule="evenodd" fill="url(#master_svg1_20062_011188)" fill-opacity="1"/>
  </g>
  <g>
    <g>
      <g>
        <path d="M73.92307662963867,196.874C73.92307662963867,201.292,77.50479662963868,204.874,81.92307662963867,204.874L170.81817662963869,204.874C175.23607662963866,204.874,178.81807662963865,201.292,178.81807662963865,196.874L178.81807662963865,86.99999C178.81807662963865,82.58172,175.23607662963866,79,170.81807662963865,79L81.92307662963867,79C77.50479662963868,79,73.92307662963867,82.58172,73.92307662963867,87L73.92307662963867,196.874Z" fill="url(#master_svg2_20062_014917)" fill-opacity="1"/>
      </g>
      <g>
        <path d="M80.21678304672241,87.2937068939209L80.21678304672241,196.5807068939209C80.21678304672241,197.68470689392092,81.11221404672241,198.5807068939209,82.21678304672241,198.5807068939209L170.52448304672242,198.5807068939209C171.62908304672243,198.5807068939209,172.52448304672242,197.68470689392092,172.52448304672242,196.5807068939209L172.5243830467224,87.2937068939209C172.5243830467224,86.1891368939209,171.6289830467224,85.2937068939209,170.5243830467224,85.2937068939209L82.21678304672241,85.2937068939209C81.11221404672241,85.2937068939209,80.21678304672241,86.1891378939209,80.21678304672241,87.2937068939209Z" fill="url(#master_svg3_24423_007630)" fill-opacity="1"/>
      </g>
      <g>
        <path d="M94.90210151672363,100.930175L94.90210151672363,100.930175Q94.90210151672363,100.827175,94.90715554672363,100.724305Q94.91220961672363,100.621425,94.92230541672363,100.51891499999999Q94.93240131672363,100.416415,94.94751471672363,100.314525Q94.96262811672364,100.212645,94.98272271672363,100.111615Q95.00281751672364,100.010595,95.02784451672363,99.910685Q95.05287151672363,99.810765,95.08277151672364,99.712205Q95.11267151672364,99.613635,95.14737151672364,99.516655Q95.18207151672364,99.419675,95.22148851672364,99.324515Q95.26090451672363,99.229355,95.30494351672364,99.136245Q95.34898251672364,99.043125,95.39753651672363,98.952295Q95.44609151672363,98.861455,95.49904451672363,98.773105Q95.55199751672363,98.684755,95.60922151672364,98.599115Q95.66644651672364,98.513475,95.72780451672364,98.430745Q95.78916151672364,98.348015,95.85450551672363,98.268385Q95.91985151672364,98.188765,95.98902151672364,98.112445Q96.05819151672364,98.036135,96.13102151672364,97.963295Q96.20386151672363,97.890465,96.28017151672363,97.821295Q96.35649151672364,97.752125,96.43611151672363,97.686779Q96.51574151672364,97.621435,96.59847151672363,97.560078Q96.68120151672363,97.49872,96.76684151672363,97.441495Q96.85248151672363,97.384271,96.94083151672363,97.331318Q97.02918151672364,97.278365,97.12002151672364,97.22981Q97.21085151672364,97.181256,97.30397151672364,97.137217Q97.39708151672363,97.093178,97.49224151672364,97.053762Q97.58740151672363,97.014345,97.68438151672363,96.979645Q97.78136151672363,96.944945,97.87993151672363,96.915045Q97.97849151672364,96.885145,98.07841151672363,96.860118Q98.17832151672363,96.835091,98.27934151672363,96.8149962Q98.38037151672363,96.7949016,98.48225151672364,96.7797882Q98.58414151672363,96.7646748,98.68664151672363,96.7545789Q98.78915151672363,96.7444831,98.89203151672363,96.73942903Q98.99490151672363,96.734375,99.09790151672364,96.734375L153.64340151672363,96.734375Q153.74640151672364,96.734375,153.84920151672364,96.73942903Q153.95210151672364,96.7444831,154.05460151672364,96.7545789Q154.15710151672363,96.7646748,154.25900151672363,96.7797882Q154.36090151672363,96.7949016,154.46190151672363,96.8149962Q154.56290151672363,96.835091,154.66290151672365,96.860118Q154.76280151672364,96.885145,154.86130151672364,96.915045Q154.95990151672362,96.944945,155.05690151672363,96.979645Q155.15390151672364,97.014345,155.24900151672364,97.053762Q155.34420151672364,97.093178,155.43730151672364,97.137217Q155.53040151672363,97.181256,155.62130151672363,97.22981Q155.71210151672364,97.278365,155.80040151672364,97.331318Q155.88880151672362,97.384271,155.97440151672362,97.441495Q156.06010151672365,97.49872,156.14280151672364,97.560078Q156.22550151672363,97.621435,156.30510151672362,97.686779Q156.38480151672363,97.752125,156.46110151672363,97.821295Q156.53740151672363,97.890465,156.61020151672363,97.963295Q156.68310151672364,98.036135,156.75220151672363,98.112445Q156.82140151672363,98.188765,156.88680151672364,98.268385Q156.95210151672364,98.348015,157.01350151672364,98.430745Q157.07480151672362,98.513475,157.13200151672362,98.599115Q157.18930151672362,98.684755,157.24220151672364,98.773105Q157.29520151672364,98.861455,157.34370151672363,98.952295Q157.39230151672365,99.043125,157.43630151672363,99.136245Q157.48040151672365,99.229355,157.51980151672365,99.324515Q157.55920151672365,99.419675,157.59390151672363,99.516655Q157.62860151672362,99.613635,157.65850151672362,99.712205Q157.68840151672362,99.810765,157.71340151672365,99.910685Q157.73840151672363,100.010595,157.75850151672364,100.111615Q157.77860151672363,100.212645,157.79380151672365,100.314525Q157.80890151672364,100.416415,157.81900151672363,100.51891499999999Q157.82910151672363,100.621425,157.83410151672365,100.724305Q157.83920151672362,100.827175,157.83920151672362,100.930175L157.83920151672362,100.930175Q157.83920151672362,101.033175,157.83410151672365,101.136055Q157.82910151672363,101.238935,157.81900151672363,101.341435Q157.80890151672364,101.443945,157.79380151672365,101.545835Q157.77860151672363,101.647715,157.75850151672364,101.748735Q157.73840151672363,101.849765,157.71340151672365,101.949675Q157.68840151672362,102.04958500000001,157.65850151672362,102.148155Q157.62860151672362,102.246725,157.59390151672363,102.343705Q157.55920151672365,102.440685,157.51980151672365,102.535845Q157.48040151672365,102.631005,157.43630151672363,102.724115Q157.39230151672365,102.817225,157.34370151672363,102.908065Q157.29520151672364,102.998905,157.24220151672364,103.087255Q157.18930151672362,103.175595,157.13200151672362,103.261245Q157.07480151672362,103.346885,157.01350151672364,103.429615Q156.95210151672364,103.512345,156.88680151672364,103.591965Q156.82140151672363,103.671585,156.75220151672363,103.747905Q156.68310151672364,103.824225,156.61020151672363,103.897055Q156.53740151672363,103.969895,156.46110151672363,104.039065Q156.38480151672363,104.108235,156.30510151672362,104.173575Q156.22550151672363,104.238925,156.14280151672364,104.300275Q156.06010151672365,104.361635,155.97440151672362,104.418865Q155.88880151672362,104.476085,155.80040151672364,104.529035Q155.71210151672364,104.581995,155.62130151672363,104.630545Q155.53040151672363,104.67910499999999,155.43730151672364,104.723145Q155.34420151672364,104.767175,155.24900151672364,104.806595Q155.15390151672364,104.846015,155.05690151672363,104.880715Q154.95990151672362,104.915415,154.86130151672364,104.945315Q154.76280151672364,104.975215,154.66290151672365,105.000235Q154.56290151672363,105.025265,154.46190151672363,105.045365Q154.36090151672363,105.065455,154.25900151672363,105.080565Q154.15710151672363,105.095685,154.05460151672364,105.105775Q153.95210151672364,105.115875,153.84920151672364,105.120925Q153.74640151672364,105.125985,153.64340151672363,105.125985L99.09790151672364,105.125985Q98.99490151672363,105.125985,98.89203151672363,105.120925Q98.78915151672363,105.115875,98.68664151672363,105.105775Q98.58414151672363,105.095685,98.48225151672364,105.080565Q98.38037151672363,105.065455,98.27934151672363,105.045365Q98.17832151672363,105.025265,98.07841151672363,105.000235Q97.97849151672364,104.975215,97.87993151672363,104.945315Q97.78136151672363,104.915415,97.68438151672363,104.880715Q97.58740151672363,104.846015,97.49224151672364,104.806595Q97.39708151672363,104.767175,97.30397151672364,104.723145Q97.21085151672364,104.67910499999999,97.12002151672364,104.630545Q97.02918151672364,104.581995,96.94083151672363,104.529035Q96.85248151672363,104.476085,96.76684151672363,104.418865Q96.68120151672363,104.361635,96.59847151672363,104.300285Q96.51574151672364,104.238925,96.43611151672363,104.173575Q96.35649151672364,104.108235,96.28017151672363,104.039065Q96.20386151672363,103.969895,96.13102151672364,103.897065Q96.05819151672364,103.824225,95.98902151672364,103.747905Q95.91985151672364,103.671585,95.85450551672363,103.591965Q95.78916151672364,103.512345,95.72780451672364,103.429615Q95.66644651672364,103.346885,95.60922151672364,103.261245Q95.55199751672363,103.175595,95.49904451672363,103.087255Q95.44609151672363,102.998905,95.39753651672363,102.908065Q95.34898251672364,102.817225,95.30494351672364,102.724115Q95.26090451672363,102.631005,95.22148851672364,102.535845Q95.18207151672364,102.440685,95.14737151672364,102.343705Q95.11267151672364,102.246725,95.08277151672364,102.148155Q95.05287151672363,102.049595,95.02784451672363,101.949675Q95.00281751672364,101.849765,94.98272271672363,101.748735Q94.96262811672364,101.647715,94.94751471672363,101.545835Q94.93240131672363,101.443945,94.92230541672363,101.341445Q94.91220961672363,101.238935,94.90715554672363,101.136055Q94.90210151672363,101.033175,94.90210151672363,100.930175ZM94.90210151672363,115.615475L94.90210151672363,115.615475Q94.90210151672363,115.512475,94.90715554672363,115.409575Q94.91220961672363,115.306675,94.92230541672363,115.20417499999999Q94.93240131672363,115.101675,94.94751471672363,114.999875Q94.96262811672364,114.897975,94.98272271672363,114.796875Q95.00281751672364,114.695875,95.02784451672363,114.595975Q95.05287151672363,114.496075,95.08277151672364,114.397475Q95.11267151672364,114.298975,95.14737151672364,114.201975Q95.18207151672364,114.104975,95.22148851672364,114.009775Q95.26090451672363,113.914675,95.30494351672364,113.821575Q95.34898251672364,113.728475,95.39753651672363,113.637575Q95.44609151672363,113.546775,95.49904451672363,113.458375Q95.55199751672363,113.370075,95.60922151672364,113.284375Q95.66644651672364,113.198775,95.72780451672364,113.116075Q95.78916151672364,113.033275,95.85450551672363,112.953675Q95.91985151672364,112.874075,95.98902151672364,112.797775Q96.05819151672364,112.721475,96.13102151672364,112.648575Q96.20386151672363,112.575775,96.28017151672363,112.506575Q96.35649151672364,112.437375,96.43611151672363,112.372075Q96.51574151672364,112.306775,96.59847151672363,112.245375Q96.68120151672363,112.183975,96.76684151672363,112.126775Q96.85248151672363,112.069575,96.94083151672363,112.016575Q97.02918151672364,111.963675,97.12002151672364,111.915075Q97.21085151672364,111.866575,97.30397151672364,111.822475Q97.39708151672363,111.778475,97.49224151672364,111.739075Q97.58740151672363,111.699675,97.68438151672363,111.664975Q97.78136151672363,111.630275,97.87993151672363,111.600375Q97.97849151672364,111.570475,98.07841151672363,111.545375Q98.17832151672363,111.520375,98.27934151672363,111.500275Q98.38037151672363,111.480175,98.48225151672364,111.465075Q98.58414151672363,111.449975,98.68664151672363,111.439875Q98.78915151672363,111.429775,98.89203151672363,111.424775Q98.99490151672363,111.419675,99.09790151672364,111.419675L123.22380151672363,111.419675Q123.32680151672363,111.419675,123.42970151672364,111.424775Q123.53250151672364,111.429775,123.63500151672363,111.439875Q123.73750151672363,111.449975,123.83940151672363,111.465075Q123.94130151672363,111.480175,124.04230151672363,111.500275Q124.14340151672363,111.520375,124.24330151672363,111.545375Q124.34320151672364,111.570475,124.44180151672363,111.600375Q124.54030151672363,111.630275,124.63730151672362,111.664975Q124.73430151672363,111.699675,124.82940151672364,111.739075Q124.92460151672364,111.778475,125.01770151672363,111.822475Q125.11080151672363,111.866575,125.20170151672363,111.915075Q125.29250151672363,111.963675,125.38080151672364,112.016575Q125.46920151672363,112.069575,125.55480151672363,112.126775Q125.64050151672363,112.183975,125.72320151672363,112.245375Q125.80590151672364,112.306775,125.88560151672363,112.372075Q125.96520151672362,112.437375,126.04150151672363,112.506575Q126.11780151672363,112.575775,126.19070151672364,112.648575Q126.26350151672364,112.721475,126.33270151672363,112.797775Q126.40180151672364,112.874075,126.46720151672363,112.953675Q126.53250151672364,113.033275,126.59390151672363,113.116075Q126.65520151672364,113.198775,126.71250151672363,113.284375Q126.76970151672363,113.370075,126.82260151672364,113.458375Q126.87560151672363,113.546775,126.92410151672362,113.637575Q126.97270151672363,113.728475,127.01670151672363,113.821575Q127.06080151672364,113.914675,127.10020151672363,114.009775Q127.13960151672363,114.104975,127.17430151672363,114.201975Q127.20900151672363,114.298975,127.23890151672363,114.397475Q127.26880151672364,114.496075,127.29380151672363,114.595975Q127.31890151672363,114.695875,127.33900151672364,114.796875Q127.35900151672362,114.897975,127.37420151672363,114.999875Q127.38930151672363,115.101675,127.39940151672363,115.20417499999999Q127.40950151672362,115.306675,127.41450151672363,115.409575Q127.41960151672363,115.512475,127.41960151672363,115.615475L127.41960151672363,115.615475Q127.41960151672363,115.718475,127.41450151672363,115.821375Q127.40950151672362,115.924275,127.39940151672363,116.026775Q127.38930151672363,116.129275,127.37420151672363,116.23117500000001Q127.35900151672362,116.332975,127.33900151672364,116.434075Q127.31890151672363,116.535075,127.29380151672363,116.634975Q127.26880151672364,116.734875,127.23890151672363,116.83347499999999Q127.20900151672363,116.931975,127.17430151672363,117.028975Q127.13960151672363,117.125975,127.10020151672363,117.221175Q127.06080151672364,117.316275,127.01670151672363,117.409375Q126.97270151672363,117.50257500000001,126.92410151672362,117.59337500000001Q126.87560151672363,117.684175,126.82260151672364,117.772575Q126.76970151672363,117.860875,126.71250151672363,117.946575Q126.65520151672364,118.032175,126.59390151672363,118.114875Q126.53250151672364,118.197675,126.46720151672363,118.277275Q126.40180151672364,118.356875,126.33270151672363,118.433175Q126.26350151672364,118.509575,126.19070151672364,118.582375Q126.11780151672363,118.655175,126.04150151672363,118.724375Q125.96520151672362,118.793575,125.88560151672363,118.858875Q125.80590151672364,118.924175,125.72320151672363,118.985575Q125.64050151672363,119.046975,125.55480151672363,119.104175Q125.46920151672363,119.16137499999999,125.38090151672364,119.214375Q125.29250151672363,119.267275,125.20170151672363,119.315875Q125.11080151672363,119.364375,125.01770151672363,119.408475Q124.92460151672364,119.45247499999999,124.82940151672364,119.491875Q124.73430151672363,119.531275,124.63730151672362,119.56597500000001Q124.54030151672363,119.600675,124.44180151672363,119.630575Q124.34320151672364,119.660475,124.24330151672363,119.685575Q124.14340151672363,119.710575,124.04230151672363,119.730675Q123.94130151672363,119.750775,123.83940151672363,119.765875Q123.73750151672363,119.780975,123.63500151672363,119.791075Q123.53250151672364,119.801175,123.42970151672364,119.806275Q123.32680151672363,119.811275,123.22380151672363,119.811275L99.09790151672364,119.811275Q98.99490151672363,119.811275,98.89203151672363,119.806275Q98.78915151672363,119.801175,98.68664151672363,119.791075Q98.58414151672363,119.780975,98.48225151672364,119.765875Q98.38037151672363,119.750775,98.27934151672363,119.730675Q98.17832151672363,119.710575,98.07841151672363,119.685575Q97.97849151672364,119.660475,97.87993151672363,119.630575Q97.78136151672363,119.600675,97.68438151672363,119.56597500000001Q97.58740151672363,119.531275,97.49224151672364,119.491875Q97.39708151672363,119.45247499999999,97.30397151672364,119.408475Q97.21085151672364,119.364375,97.12002151672364,119.315875Q97.02918151672364,119.267275,96.94083151672363,119.214375Q96.85248151672363,119.16137499999999,96.76684151672363,119.104175Q96.68120151672363,119.046975,96.59847151672363,118.985575Q96.51574151672364,118.924175,96.43611151672363,118.858875Q96.35649151672364,118.793575,96.28017151672363,118.724375Q96.20386151672363,118.655175,96.13102151672364,118.582375Q96.05819151672364,118.509575,95.98902151672364,118.433175Q95.91985151672364,118.356875,95.85450551672363,118.277275Q95.78916151672364,118.197675,95.72780451672364,118.114875Q95.66644651672364,118.032175,95.60922151672364,117.946575Q95.55199751672363,117.860875,95.49904451672363,117.772575Q95.44609151672363,117.684175,95.39753651672363,117.59337500000001Q95.34898251672364,117.50257500000001,95.30494351672364,117.409375Q95.26090451672363,117.316275,95.22148851672364,117.221175Q95.18207151672364,117.125975,95.14737151672364,117.028975Q95.11267151672364,116.931975,95.08277151672364,116.83347499999999Q95.05287151672363,116.734875,95.02784451672363,116.634975Q95.00281751672364,116.535075,94.98272271672363,116.434075Q94.96262811672364,116.332975,94.94751471672363,116.23117500000001Q94.93240131672363,116.129275,94.92230541672363,116.026775Q94.91220961672363,115.924275,94.90715554672363,115.821375Q94.90210151672363,115.718475,94.90210151672363,115.615475Z" fill="#E9E9E9" fill-opacity="1"/>
      </g>
    </g>
    <g>
      <path d="M111.68577662963867,142.888425L111.68577662963867,149.18212499999998L109.39182662963867,149.18212499999998Q109.19531662963867,149.18212499999998,108.99975662963867,149.201425Q108.80419662963867,149.22062499999998,108.61146662963867,149.259025Q108.41873662963867,149.297325,108.23068662963867,149.354325Q108.04264662963867,149.411425,107.86109662963867,149.486625Q107.67954662963868,149.561825,107.50623662963868,149.654425Q107.33293662963867,149.747125,107.16954662963867,149.856225Q107.00615662963867,149.965425,106.85425662963867,150.090125Q106.70234662963867,150.214725,106.56339662963867,150.353725Q106.42444662963867,150.492625,106.29978462963867,150.644525Q106.17512162963867,150.796425,106.06594762963867,150.959825Q105.95677462963867,151.123225,105.86414162963867,151.296525Q105.77150862963867,151.46982500000001,105.69630862963866,151.651425Q105.62110862963867,151.832925,105.56406562963868,152.021025Q105.50702262963867,152.209025,105.46868552963868,152.401725Q105.43034882963867,152.594525,105.41108772963867,152.790025Q105.39182662963867,152.985625,105.39182662963867,153.18212499999998L105.39182662963867,178.748525Q105.39182662963867,178.945025,105.41108772963867,179.140625Q105.43034882963867,179.336225,105.46868552963868,179.52892500000002Q105.50702262963867,179.72162500000002,105.56406562963868,179.909725Q105.62110862963867,180.097725,105.69630862963866,180.279325Q105.77150862963867,180.460825,105.86414162963867,180.63412499999998Q105.95677462963867,180.807425,106.06594762963867,180.970825Q106.17512162963867,181.13422500000001,106.29978462963867,181.286125Q106.42444662963867,181.438025,106.56339662963867,181.577025Q106.70234662963867,181.715925,106.85425662963867,181.840625Q107.00615662963867,181.965225,107.16954662963867,182.074425Q107.33293662963867,182.183625,107.50623662963868,182.276225Q107.67954662963868,182.36882500000002,107.86109662963867,182.444025Q108.04264662963867,182.519325,108.23068662963867,182.576325Q108.41873662963867,182.633325,108.61146662963867,182.671725Q108.80419662963867,182.710025,108.99975662963867,182.72932500000002Q109.19531662963867,182.748525,109.39182662963867,182.748525L143.34982662963867,182.748525Q143.5464266296387,182.748525,143.74192662963867,182.72932500000002Q143.93752662963868,182.710025,144.13022662963868,182.671725Q144.3229266296387,182.633325,144.51102662963868,182.576325Q144.69902662963867,182.519325,144.88062662963867,182.444025Q145.06212662963867,182.36882500000002,145.23542662963868,182.276225Q145.40872662963866,182.183625,145.57212662963866,182.074425Q145.73552662963868,181.965225,145.88742662963867,181.840625Q146.03932662963868,181.715925,146.17832662963866,181.577025Q146.31722662963867,181.438025,146.44192662963866,181.286125Q146.56662662963868,181.13422500000001,146.6757266296387,180.970825Q146.78492662963868,180.807425,146.87752662963868,180.63412499999998Q146.97022662963866,180.460825,147.04542662963865,180.279325Q147.12062662963868,180.097725,147.17762662963867,179.909725Q147.23462662963868,179.72162500000002,147.27302662963868,179.52892500000002Q147.31132662963867,179.336225,147.3306266296387,179.140625Q147.34982662963867,178.945025,147.34982662963867,178.748525L147.34982662963867,153.18212499999998Q147.34982662963867,152.985625,147.3306266296387,152.790025Q147.31132662963867,152.594525,147.27302662963868,152.401725Q147.23462662963868,152.209025,147.17762662963867,152.021025Q147.12062662963868,151.832925,147.04542662963865,151.651425Q146.97022662963866,151.46982500000001,146.87752662963868,151.296525Q146.78492662963868,151.123225,146.6757266296387,150.959825Q146.56662662963868,150.796425,146.44192662963866,150.644525Q146.31722662963867,150.492625,146.17832662963866,150.353725Q146.03932662963868,150.214725,145.88742662963867,150.090125Q145.73552662963868,149.965425,145.57212662963866,149.856225Q145.40872662963866,149.747125,145.23542662963868,149.654425Q145.06212662963867,149.561825,144.88062662963867,149.486625Q144.69902662963867,149.411425,144.51102662963868,149.354325Q144.3229266296387,149.297325,144.13022662963868,149.259025Q143.93752662963868,149.22062499999998,143.74192662963867,149.201425Q143.5464266296387,149.18212499999998,143.34982662963867,149.18212499999998L141.05642662963868,149.18212499999998L141.05642662963868,142.888425C141.05642662963868,134.777965,134.48152662963867,128.203125,126.37112662963867,128.203125C118.26062662963867,128.203125,111.68577662963867,134.777965,111.68577662963867,142.888425ZM134.76292662963868,142.888425L134.76292662963868,149.18212499999998L117.97972662963868,149.18212499999998L117.97972662963868,142.888425C117.97972662963868,138.253925,121.73672662963867,134.496825,126.37132662963867,134.496825C131.00592662963868,134.496825,134.76292662963868,138.253925,134.76292662963868,142.888425ZM131.93032662963867,162.923325Q131.93032662963867,163.132425,131.91512662963868,163.340925Q131.90002662963866,163.54952500000002,131.86982662963868,163.756425Q131.83962662963867,163.963325,131.79452662963868,164.167525Q131.74942662963866,164.371625,131.68962662963867,164.572025Q131.62992662963867,164.772425,131.55582662963866,164.967925Q131.48172662963867,165.163425,131.39362662963867,165.353125Q131.30552662963868,165.542725,131.20402662963866,165.725525Q131.10242662963867,165.908325,130.98792662963868,166.083225Q130.8734266296387,166.258225,130.74652662963868,166.42442499999999Q130.61962662963867,166.590625,130.48102662963868,166.74712499999998Q130.34242662963868,166.903725,130.19282662963866,167.049825Q130.04322662963867,167.196025,129.88352662963868,167.330925Q129.72372662963866,167.465825,129.55462662963868,167.58882499999999Q129.38552662963866,167.711825,129.20802662963868,167.822225Q129.03042662963867,167.932725,128.84532662963866,168.030025Q128.66032662963866,168.12732499999998,128.46862662963866,168.210925L128.46862662963866,175.615625L123.85322662963867,175.615625L123.85322662963867,168.210825Q123.66162662963868,168.127125,123.47652662963867,168.029925Q123.29142662963866,167.932625,123.11392662963867,167.822125Q122.93632662963867,167.711725,122.76722662963867,167.588725Q122.59822662963867,167.465725,122.43842662963867,167.330825Q122.27872662963867,167.195925,122.12912662963868,167.049725Q121.97962662963867,166.903625,121.84102662963868,166.747025Q121.70242662963867,166.590525,121.57552662963867,166.424325Q121.44862662963867,166.258125,121.33412662963867,166.083125Q121.21962662963867,165.90822500000002,121.11802662963868,165.725425Q121.01652662963868,165.542725,120.92842662963866,165.353025Q120.84042662963867,165.163425,120.76622662963867,164.967825Q120.69212662963866,164.772325,120.63242662963867,164.572025Q120.57262662963868,164.371625,120.52752662963867,164.167425Q120.48252662963867,163.963225,120.45232662963868,163.756325Q120.42212662963867,163.54942499999999,120.40692662963868,163.340925Q120.39182662963867,163.132325,120.39182662963867,162.923325Q120.39182662963867,162.781625,120.39872662963867,162.640225Q120.40572662963868,162.498725,120.41962662963867,162.357825Q120.43352662963868,162.216825,120.45422662963867,162.076725Q120.47502662963868,161.936625,120.50272662963867,161.797725Q120.53032662963867,161.658825,120.56472662963867,161.521425Q120.59912662963868,161.38412499999998,120.64022662963868,161.248525Q120.68132662963868,161.113025,120.72902662963867,160.979725Q120.77682662963868,160.846325,120.83102662963867,160.715525Q120.88522662963867,160.58462500000002,120.94572662963867,160.456625Q121.00632662963866,160.328625,121.07302662963868,160.203725Q121.13982662963868,160.078825,121.21262662963868,159.957325Q121.28542662963866,159.835825,121.36412662963868,159.718025Q121.44282662963867,159.600325,121.52712662963867,159.486525Q121.61152662963867,159.372825,121.70142662963868,159.263325Q121.79122662963867,159.153825,121.88632662963867,159.048925Q121.98142662963868,158.943925,122.08162662963868,158.843825Q122.18172662963867,158.743625,122.28672662963868,158.648525Q122.39162662963867,158.553425,122.50112662963868,158.463625Q122.61052662963867,158.373725,122.72432662963867,158.289425Q122.83812662963868,158.205025,122.95582662963866,158.126325Q123.07362662963867,158.047625,123.19512662963868,157.974825Q123.31652662963867,157.902025,123.44142662963867,157.835325Q123.56632662963867,157.768525,123.69442662963867,157.707925Q123.82242662963867,157.647425,123.95322662963866,157.593225Q124.08412662963867,157.539025,124.21742662963868,157.491325Q124.35082662963868,157.443625,124.48632662963867,157.402525Q124.62182662963868,157.361325,124.75922662963868,157.326925Q124.89662662963867,157.292525,125.03552662963867,157.264925Q125.17442662963867,157.237325,125.31452662963866,157.216525Q125.45462662963867,157.195725,125.59552662963867,157.181825Q125.73652662963867,157.167925,125.87792662963867,157.161025Q126.01942662963867,157.154025,126.16102662963867,157.154025Q126.30272662963867,157.154025,126.44412662963867,157.161025Q126.58562662963867,157.167925,126.72652662963867,157.181825Q126.86752662963868,157.195725,127.00752662963868,157.216525Q127.14762662963867,157.237325,127.28652662963867,157.264925Q127.42552662963867,157.292525,127.56282662963866,157.326925Q127.70022662963868,157.361325,127.83572662963867,157.402425Q127.97132662963867,157.443625,128.1046266296387,157.491325Q128.23802662963868,157.539025,128.36882662963868,157.593225Q128.49972662963867,157.647425,128.6277266296387,157.707925Q128.75572662963867,157.768525,128.88062662963867,157.835325Q129.00552662963867,157.902025,129.12702662963866,157.974825Q129.24852662963866,158.047625,129.36622662963867,158.126325Q129.48402662963866,158.205025,129.59782662963866,158.289425Q129.71152662963868,158.373725,129.82102662963868,158.463625Q129.93052662963868,158.553425,130.03542662963866,158.648525Q130.14032662963868,158.743625,130.24052662963868,158.843825Q130.34062662963868,158.943925,130.43572662963868,159.048925Q130.53092662963866,159.153825,130.62072662963868,159.263325Q130.71062662963868,159.372825,130.79492662963867,159.486525Q130.87932662963868,159.600325,130.95802662963868,159.718025Q131.03672662963868,159.835825,131.10952662963868,159.957325Q131.18232662963868,160.078825,131.24902662963868,160.203725Q131.31582662963868,160.328625,131.37642662963867,160.456625Q131.43692662963866,160.58462500000002,131.49112662963867,160.715525Q131.54532662963868,160.846325,131.59302662963867,160.979725Q131.64072662963866,161.113025,131.68182662963866,161.248525Q131.72302662963867,161.38412499999998,131.75742662963867,161.521425Q131.79182662963868,161.658825,131.81942662963868,161.797725Q131.84702662963866,161.936625,131.86782662963867,162.076725Q131.88862662963868,162.216825,131.90252662963866,162.357825Q131.91642662963866,162.498725,131.92332662963867,162.640225Q131.93032662963867,162.781625,131.93032662963867,162.923325Z" fill-rule="evenodd" fill="#E4E4E4" fill-opacity="1"/>
    </g>
  </g>
</svg>