<svg viewBox="0 0 1549 1024" version="1.1"
  xmlns="http://www.w3.org/2000/svg" width="1em" height="1em">
  <path d="M474.173 832.608h653.716a9.962 9.962 0 0 1 10.049 10.02c0 2.562-1.167 5.126-3.038 6.99-1.868 1.865-4.44 2.797-7.01 2.797H474.172a9.962 9.962 0 0 1-10.048-10.02c0-5.361 4.44-9.792 10.048-9.792z m-214.32 59.416h295.423a9.962 9.962 0 0 1 10.047 10.017c0 2.564-1.166 5.13-3.034 6.99-1.872 1.863-4.44 2.796-7.014 2.796H259.617a9.962 9.962 0 0 1-10.047-10.018 10.275 10.275 0 0 1 10.283-9.789z m403.167 0h735.518a9.962 9.962 0 0 1 10.049 10.017c0 2.564-1.171 5.13-3.038 6.99-1.872 1.863-4.441 2.796-7.01 2.796H663.02a9.962 9.962 0 0 1-10.052-10.018c0-5.36 4.44-9.789 10.052-9.789z m-498.292 0h43.475a9.962 9.962 0 0 1 10.048 10.017c0 2.564-1.167 5.13-3.039 6.99-1.867 1.863-4.44 2.796-7.01 2.796h-43.474a9.962 9.962 0 0 1-10.047-10.018c0-5.36 4.44-9.789 10.047-9.789z m998.216-59.416h29.448a9.962 9.962 0 0 1 10.052 10.02c0 2.562-1.167 5.126-3.038 6.99-1.868 1.865-4.44 2.797-7.01 2.797h-29.447a9.962 9.962 0 0 1-10.053-10.02c0.236-5.361 4.676-9.792 10.049-9.792z m296.127 59.416h53.052a9.962 9.962 0 0 1 10.052 10.017c0 2.564-1.17 5.13-3.038 6.99-1.873 1.863-4.441 2.796-7.01 2.796h-53.061a9.962 9.962 0 0 1-10.048-10.018c0-5.36 4.441-9.789 10.053-9.789z m-326.74 95.528h107.975a9.962 9.962 0 0 1 10.052 10.02c0 2.561-1.17 5.126-3.038 6.99-1.873 1.864-4.44 2.797-7.01 2.797h-107.98a9.962 9.962 0 0 1-10.052-10.022c0.235-5.357 4.676-9.785 10.052-9.785z m-45.812 0h15.663a9.962 9.962 0 0 1 10.049 10.02c0 2.561-1.171 5.126-3.04 6.99-1.871 1.864-4.44 2.797-7.009 2.797h-15.664a9.962 9.962 0 0 1-10.048-10.022c0-5.357 4.44-9.785 10.048-9.785z m-392.881 0h170.38a9.962 9.962 0 0 1 10.052 10.02c0 2.561-1.17 5.126-3.038 6.99-1.873 1.864-4.44 2.797-7.01 2.797H693.638a9.962 9.962 0 0 1-10.052-10.022c0-5.357 4.44-9.785 10.052-9.785z m255.922 0h107.977a9.962 9.962 0 0 1 10.052 10.02c0 2.561-1.17 5.126-3.038 6.99-1.869 1.864-4.44 2.797-7.01 2.797H949.56a9.962 9.962 0 0 1-10.053-10.022c0-5.357 4.44-9.785 10.052-9.785zM407.798 832.607h29.448a9.962 9.962 0 0 1 10.049 10.022c0 2.56-1.167 5.125-3.036 6.99-1.872 1.864-4.44 2.796-7.014 2.796h-29.447a9.962 9.962 0 0 1-10.052-10.02c0-5.361 4.44-9.792 10.052-9.792z m193.986 59.418h23.374a9.962 9.962 0 0 1 10.048 10.017c0 2.564-1.167 5.13-3.04 6.99-1.866 1.863-4.44 2.796-7.009 2.796h-23.374a9.962 9.962 0 0 1-10.048-10.018c0-5.36 4.441-9.789 10.049-9.789zM141.824 285.29c-30.152 0-54.688-24.232-54.688-54.29 0-30.055 24.54-54.29 54.689-54.29 30.152 0 54.688 24.236 54.688 54.29 0 29.824-24.54 54.29-54.688 54.29z m0-24.932c16.36 0 29.448-13.048 29.448-29.358s-13.322-29.357-29.447-29.357c-16.36 0-29.448 13.048-29.448 29.357s13.322 29.358 29.448 29.358z m521.431-199.68c2.804 0 5.142 2.331 5.142 5.126s-2.338 5.127-5.142 5.127h-39.272v38.908c0 2.796-2.334 5.126-5.141 5.126a5.181 5.181 0 0 1-5.143-5.13V70.927h-39.264a5.181 5.181 0 0 1-5.142-5.13c0-2.792 2.339-5.122 5.142-5.122H613.7V21.767c0-2.796 2.339-5.126 5.143-5.126 2.807 0 5.14 2.33 5.14 5.126V60.68h39.27z m-549.711 442.47c1.402 0 2.803 0.696 3.505 1.863 0.704 1.163 0.704 2.56 0 3.959-0.702 1.166-2.103 1.864-3.505 1.864H76.617v37.047c-0.235 1.865-1.871 3.498-3.74 3.498-1.871 0-3.505-1.398-3.739-3.498v-37.043H31.507c-1.403 0-2.804-0.702-3.506-1.867-0.7-1.164-0.7-2.562 0-3.96 0.706-1.167 2.104-1.864 3.51-1.864h37.626v-36.813c0-2.1 1.636-3.728 3.74-3.728 2.102 0 3.74 1.628 3.74 3.728v37.043l36.926-0.234zM1482.44 316.045c0.234 0.235 0.469 0.701 0.469 1.167s-0.235 0.932-0.47 1.163c-0.7 0.7-1.636 0.7-2.338 0l-17.06-16.776-17.062 16.776c-0.702 0.7-1.637 0.7-2.338 0-0.701-0.696-0.701-1.629 0-2.331l17.06-16.775-17.06-16.776c-0.466-0.466-0.701-1.162-0.466-1.628 0.235-0.7 0.7-0.932 1.167-1.167 0.706-0.235 1.17 0 1.637 0.47l17.061 16.772 17.061-16.777c0.47-0.464 1.17-0.696 1.637-0.464 0.706 0.234 1.167 0.7 1.167 1.166 0.235 0.696 0 1.162-0.464 1.629l-17.063 16.776 17.062 16.775z m-357.825 88.076l-13.087-13.048c-0.47-0.47-0.47-0.7 0-1.167 1.167-0.931 2.103-2.094 3.038-3.028l0.467 0.467 13.322 13.048c0.47 0.466 0.47 0.697 0 1.163a41.704 41.704 0 0 0-3.038 3.262l-0.702-0.696z m32.721 24.928l13.787 13.749 0.236 0.235c-1.167 1.164-2.338 2.33-3.505 3.262 0 0-0.47 0-0.704-0.235a134.921 134.921 0 0 0-5.84-5.592l-7.478-7.456-0.47-0.466c0-0.234 0.235-0.234 0.235-0.465l3.038-3.032c0.235-0.232 0.47-0.466 0.701 0z m-0.935-25.164l-2.804-2.796c-0.235-0.233-0.235-0.465 0-0.697l13.556-13.282s0.236 0 0.236-0.235l3.27 3.266v0.465l-0.236 0.236-13.087 13.044c-0.235 0.47-0.47 0.47-0.935 0z m-30.85 25.164l2.804 2.8c0.235 0.232 0.235 0.467 0 0.697l-13.557 13.284s-0.235 0-0.235 0.234l-3.27-3.265v-0.467l0.235-0.235 13.087-13.048c0.235-0.466 0.47-0.232 0.936 0z m16.125-41.704v8.154c0 0.7-0.235 0.7-0.7 0.7h-3.74c-0.47 0-0.701 0-0.701-0.47v-16.54c0-0.466 0.235-0.697 0.704-0.697h3.972c0.47 0 0.7 0.235 0.7 0.696-0.235 2.564-0.235 5.36-0.235 8.156z m-21.036 25.395v3.963c0 0.465-0.234 0.697-0.7 0.697h-16.827c-0.47 0-0.47-0.235-0.47-0.697v-3.963c0-0.466 0.235-0.696 0.705-0.696h16.36c0.702 0 0.932 0 0.932 0.696z m59.13 0v3.963c0 0.465-0.232 0.465-0.466 0.465h-16.826c-0.47 0-0.701-0.235-0.701-0.7v-3.959c0-0.47 0.235-0.701 0.704-0.701h16.357c0.705 0.235 0.936 0.235 0.936 0.932z m-38.094 33.324v8.153c0 0.466-0.235 0.697-0.7 0.697h-3.975c-0.466 0-0.466-0.235-0.466-0.466v-16.541c0-0.47 0.235-0.7 0.704-0.7h3.972c0.47 0 0.7 0.234 0.7 0.7-0.235 2.796-0.235 5.357-0.235 8.153z m348.944 98.092c-17.998 0-32.72-14.45-32.72-32.391 0-17.939 14.722-32.384 32.72-32.384s32.72 14.444 32.72 32.384c0 17.942-14.489 32.388-32.72 32.388z m0-10.024c8.185 0 15.894-4.425 19.864-11.414a22.234 22.234 0 0 0 0-22.833c-4.205-6.991-11.684-11.42-19.864-11.42-12.621 0-23.14 10.252-23.14 22.833 0.235 12.587 10.519 22.838 23.143 22.838zM1083.95 164.6a23.934 23.934 0 0 1-16.827-6.99c-4.44-4.424-7.014-10.483-7.014-16.54 0-6.293 2.573-12.351 7.01-16.544 4.445-4.426 10.519-6.99 16.83-6.755a23.503 23.503 0 0 1 23.606 23.534c0 6.289-2.57 12.345-7.01 16.54-4.21 4.426-10.287 6.755-16.595 6.755z m-0.235-10.718c4.675 0.236 9.35-2.33 11.685-6.288 2.337-3.963 2.337-9.085 0-13.283-3.035-5.126-8.882-7.456-14.725-5.822-5.607 1.628-9.581 6.754-9.581 12.58 0 6.756 5.611 12.582 12.62 12.813zM947.689 629.903v-24.466c0-27.028-13.788-40.776-40.898-40.776-27.113 0-40.9 13.744-40.9 40.776v24.466h81.801z m-114.755 89.936c0 4.425 3.505 8.156 8.18 8.156h131.35c4.442 0 8.181-3.727 8.181-8.156V654.6H833.17v65.239h-0.235z m-24.775 16.31v-98.095c0-4.424 3.739-8.152 8.184-8.152h24.535v-24.466c0-36.117 29.45-65.475 65.678-65.475 36.226 0 65.674 29.358 65.674 65.475v24.466h24.54c4.441 0 8.185 3.728 8.185 8.153v98.093c0 9.085-7.48 16.309-16.365 16.309H824.753c-9.117 0-16.595-7.22-16.595-16.31z m106.578-30.987c0 4.425-3.74 8.153-8.185 8.153-4.436 0-8.175-3.728-8.175-8.153v-18.174h-8.185c-4.437 0-8.176-3.728-8.176-8.156 0-4.425 3.739-8.157 8.18-8.157h32.953c4.443 0 8.184 3.728 8.184 8.156 0 4.426-3.74 8.156-8.185 8.156h-8.176v18.17h-0.235z m-211.05-170.09C651.1 500.819 630.3 434.413 653.904 376.4c23.609-58.028 85.077-91.114 146.544-79.225 61.468 11.88 106.108 65.708 106.108 128.382 0 72.228-58.663 130.712-131.12 130.712-108.676 0-196.788 87.84-196.788 196.185h-32.721c0-101.355 66.14-187.332 157.76-217.387z m71.75-11.419c54.223 0 98.398-43.803 98.398-98.092 0-39.61-24.074-75.49-60.766-90.637-36.692-15.147-79-6.76-107.28 21.204-28.045 27.96-36.457 70.134-21.267 106.943 15.194 36.817 51.185 60.582 90.916 60.582z" p-id="10773"></path>
</svg>