<svg fill="none" version="1.1" width="254" height="294" viewBox="0 0 254 294">
  <defs>
    <linearGradient x1="0.5" y1="0" x2="0.5" y2="1" id="master_svg0_20062_011188">
      <stop offset="0%" stop-color="#D8D8D8" stop-opacity="1"/>
      <stop offset="100%" stop-color="#FFFFFF" stop-opacity="0"/>
    </linearGradient>
    <linearGradient x1="0.621826171875" y1="1.0295218229293823" x2="0.621826171875" y2="0.08213778585195541" id="master_svg1_24423_007800">
      <stop offset="0%" stop-color="#FFFFFF" stop-opacity="1"/>
      <stop offset="100%" stop-color="#EEEEEE" stop-opacity="1"/>
    </linearGradient>
    <linearGradient x1="0.5" y1="0" x2="0.5" y2="1" id="master_svg2_24335_007033">
      <stop offset="0%" stop-color="#DBDBDB" stop-opacity="1"/>
      <stop offset="98.57142567634583%" stop-color="#E7E7E7" stop-opacity="1"/>
    </linearGradient>
    <linearGradient x1="0.10348694771528244" y1="0.8235872387886047" x2="0.8967307209968567" y2="0.35489511489868164" id="master_svg3_20062_013346">
      <stop offset="0%" stop-color="#F1F1F1" stop-opacity="1"/>
      <stop offset="100%" stop-color="#E1E1E1" stop-opacity="1"/>
    </linearGradient>
    <linearGradient x1="0.10348694771528244" y1="0.8235872387886047" x2="0.8967307209968567" y2="0.35489511489868164" id="master_svg4_24423_006464">
      <stop offset="0%" stop-color="#E1E1E1" stop-opacity="1"/>
      <stop offset="100%" stop-color="#E1E1E1" stop-opacity="1"/>
    </linearGradient>
  </defs>
  <g>
    <path d="M220.821,231.497784375Q220.833,231.110584375,220.833,230.723284375Q220.833,229.487784375,220.716,228.253784375Q220.599,227.019884375,220.366,225.790384375Q220.133,224.560884375,219.784,223.338784375Q219.435,222.116684375,218.97,220.904984375Q218.506,219.693284375,217.928,218.494884375Q217.35,217.296384375,216.659,216.114184375Q215.969,214.931884375,215.167,213.768684375Q214.366,212.605484375,213.455,211.463984375Q212.545,210.322584375,211.528,209.205784375Q210.51,208.088984375,209.389,206.999384375Q208.267,205.90978437500002,207.044,204.850084375Q205.821,203.790384375,204.499,202.763184375Q203.177,201.735984375,201.76,200.743584375Q200.343,199.751284375,198.834,198.796284375Q197.324,197.841284375,195.727,196.925884375Q194.129,196.010484375,192.446,195.136884375Q190.764,194.263284375,189.001,193.433584375Q187.238,192.603884375,185.399,191.820084375Q183.56,191.036384375,181.649,190.300414375Q179.738,189.564454375,177.76,188.878074375Q175.782,188.191694375,173.741,187.556544375Q171.701,186.921394375,169.602,186.339004375Q167.504,185.756614375,165.353,185.228394375Q163.203,184.70016437499999,161.005,184.227384375Q158.806,183.754594375,156.566,183.338384375Q154.326,182.922174375,152.05,182.563534375Q149.773,182.204904375,147.465,181.904714375Q145.15699999999998,181.604524375,142.824,181.363499375Q140.49,181.122474375,138.137,180.941195375Q135.78300000000002,180.759917375,133.416,180.638821375Q131.048,180.517726375,128.672,180.457105175Q126.2955,180.396484375,123.9163,180.396484375Q121.5371,180.396484375,119.1608,180.457105175Q116.7845,180.517726375,114.4168,180.638821375Q112.0491,180.759917375,109.6957,180.941195375Q107.3423,181.122474375,105.0089,181.363499375Q102.6754,181.604524375,100.3676,181.904714375Q98.0597,182.204904375,95.783,182.563534375Q93.5063,182.922174375,91.2662,183.338384375Q89.0261,183.754594375,86.828,184.227384375Q84.63,184.70016437499999,82.47919999999999,185.228394375Q80.32849999999999,185.756614375,78.2303,186.339004375Q76.132,186.921394375,74.0914,187.556544375Q72.0507,188.191694375,70.07249999999999,188.878074375Q68.0943,189.564454375,66.1833,190.300414375Q64.2724,191.036384375,62.4332,191.820084375Q60.5941,192.603884375,58.8313,193.433584375Q57.0684,194.263284375,55.3861,195.136884375Q53.7038,196.010484375,52.1061,196.925884375Q50.5083,197.841284375,48.998999999999995,198.796284375Q47.4897,199.751284375,46.0724,200.743584375Q44.655100000000004,201.735984375,43.3333,202.763184375Q42.0115,203.790484375,40.788399999999996,204.850084375Q39.5653,205.90978437500002,38.443799999999996,206.999384375Q37.3222,208.088984375,36.305,209.205784375Q35.28778,210.322584375,34.37731,211.463984375Q33.46685,212.605484375,32.66533,213.768684375Q31.86382,214.931884375,31.173180000000002,216.114184375Q30.48255,217.296384375,29.90446,218.494884375Q29.32637,219.693284375,28.86222,220.904984375Q28.39807,222.116684375,28.04897,223.338784375Q27.699877,224.560884375,27.466678,225.790384375Q27.23348,227.019884375,27.11674,228.253784375Q27,229.487784375,27,230.723284375Q27,231.110584375,27.0114788,231.497784375L220.821,231.497784375Z" fill-rule="evenodd" fill="url(#master_svg0_20062_011188)" fill-opacity="1"/>
  </g>
  <g transform="matrix(1,0,0,-1,0,327.3127899169922)">
    <path d="M63.123348236083984,163.6563949584961L81.62554823608399,186.5638949584961L166.207348236084,186.5638949584961L184.709348236084,163.6563949584961L150.34804823608397,163.6563949584961L97.48454823608398,163.6563949584961L63.123348236083984,163.6563949584961Z" fill="#D8D8D8" fill-opacity="1"/>
  </g>
  <g>
    <path d="M81.62554931640625,183.03965205078126L166.20704931640626,183.03965205078126L166.20704931640626,92.12335205078125C166.20704931640626,88.80964205078125,163.52074931640624,86.12335205078125,160.20704931640626,86.12335205078125L87.62554931640625,86.12335205078125C84.31183931640625,86.12335205078125,81.62554931640625,88.80964205078125,81.62554931640625,92.12335205078125L81.62554931640625,183.03965205078126Z" fill="url(#master_svg1_24423_007800)" fill-opacity="1"/>
  </g>
  <g>
    <path d="M92.19823455810547,126.17623729248047L92.19823455810547,100.69603729248047Q92.19823455810547,100.49952729248047,92.21749565810546,100.30396729248046Q92.23675675810547,100.10840729248046,92.27509345810547,99.91567729248047Q92.31343055810547,99.72294729248047,92.37047355810547,99.53489729248047Q92.42751655810547,99.34685729248046,92.50271655810546,99.16530729248046Q92.57791655810547,98.98375729248048,92.67054955810546,98.81044729248048Q92.76318255810547,98.63714729248046,92.87235555810547,98.47375729248047Q92.98152955810546,98.31036729248046,93.10619255810546,98.15846729248047Q93.23085455810546,98.00655729248047,93.36980455810547,97.86760729248047Q93.50875455810547,97.72865729248046,93.66066455810547,97.60399529248046Q93.81256455810546,97.47933229248046,93.97595455810547,97.37015829248047Q94.13934455810546,97.26098529248047,94.31264455810548,97.16835229248046Q94.48595455810548,97.07571929248047,94.66750455810546,97.00051929248046Q94.84905455810546,96.92531929248047,95.03709455810547,96.86827629248047Q95.22514455810547,96.81123329248047,95.41787455810547,96.77289619248047Q95.61060455810546,96.73455949248047,95.80616455810546,96.71529839248046Q96.00172455810547,96.69603729248047,96.19823455810547,96.69603729248047L149.87223455810548,96.69603729248047Q150.06873455810546,96.69603729248047,150.26433455810547,96.71529839248046Q150.45983455810546,96.73455949248047,150.65263455810546,96.77289619248047Q150.84533455810546,96.81123329248047,151.03333455810548,96.86827629248047Q151.22143455810547,96.92531929248047,151.40293455810547,97.00051929248046Q151.58453455810547,97.07571929248047,151.75783455810546,97.16835229248046Q151.93113455810547,97.26098529248047,152.09453455810547,97.37015829248047Q152.25793455810546,97.47933229248046,152.40983455810547,97.60399529248046Q152.56173455810546,97.72865729248046,152.70063455810546,97.86760729248047Q152.83963455810547,98.00655729248047,152.96423455810546,98.15846729248047Q153.08893455810548,98.31036729248046,153.19813455810547,98.47375729248047Q153.30733455810548,98.63714729248046,153.39993455810549,98.81044729248048Q153.49253455810546,98.98375729248048,153.56773455810549,99.16530729248046Q153.64293455810548,99.34685729248046,153.70003455810547,99.53489729248047Q153.75703455810546,99.72294729248047,153.79533455810548,99.91567729248047Q153.83373455810548,100.10840729248046,153.85293455810546,100.30396729248046Q153.87223455810548,100.49952729248047,153.87223455810548,100.69603729248047L153.87223455810548,126.17623729248047Q153.87223455810548,126.37273729248047,153.85293455810546,126.56823729248046Q153.83373455810548,126.76383729248047,153.79533455810548,126.95653729248048Q153.75703455810546,127.14933729248047,153.70003455810547,127.33733729248047Q153.64293455810548,127.52543729248046,153.56773455810549,127.70693729248046Q153.49253455810546,127.88853729248046,153.39993455810549,128.06183729248048Q153.30733455810548,128.23513729248046,153.19813455810547,128.39853729248046Q153.08893455810548,128.56193729248048,152.96423455810546,128.71373729248046Q152.83963455810547,128.86573729248047,152.70063455810546,129.00463729248048Q152.56173455810546,129.14363729248046,152.40983455810547,129.26823729248048Q152.25793455810546,129.39293729248047,152.09453455810547,129.50213729248048Q151.93113455810547,129.61123729248047,151.75783455810546,129.70393729248048Q151.58453455810547,129.79653729248048,151.40293455810547,129.87173729248047Q151.22143455810547,129.94693729248047,151.03333455810548,130.00393729248046Q150.84533455810546,130.06103729248048,150.65263455810546,130.09933729248047Q150.45983455810546,130.13773729248047,150.26433455810547,130.15693729248048Q150.06873455810546,130.17623729248047,149.87223455810548,130.17623729248047L96.19823455810547,130.17623729248047Q96.00172455810547,130.17623729248047,95.80616455810546,130.15693729248048Q95.61060455810546,130.13773729248047,95.41787455810547,130.09933729248047Q95.22514455810547,130.06103729248048,95.03709455810547,130.00393729248046Q94.84905455810546,129.94693729248047,94.66750455810546,129.87173729248047Q94.48595455810548,129.79653729248048,94.31264455810548,129.70393729248048Q94.13934455810546,129.61123729248047,93.97595455810547,129.50213729248048Q93.81256455810546,129.39293729248047,93.66066455810547,129.26823729248048Q93.50875455810547,129.14363729248046,93.36980455810547,129.00463729248048Q93.23085455810546,128.86573729248047,93.10619255810546,128.71373729248046Q92.98152955810546,128.56193729248048,92.87235555810547,128.39853729248046Q92.76318255810547,128.23513729248046,92.67054955810546,128.06183729248048Q92.57791655810547,127.88853729248046,92.50271655810546,127.70693729248046Q92.42751655810547,127.52543729248046,92.37047355810547,127.33733729248047Q92.31343055810547,127.14933729248047,92.27509345810547,126.95653729248048Q92.23675675810547,126.76383729248047,92.21749565810546,126.56823729248046Q92.19823455810547,126.37273729248047,92.19823455810547,126.17623729248047ZM92.19823455810547,143.83263729248046L92.19823455810547,143.83263729248046Q92.19823455810547,143.68113729248046,92.21308345810547,143.53033729248045Q92.22793225810547,143.37953729248048,92.25748695810547,143.23103729248047Q92.28704175810547,143.08243729248048,92.33101755810547,142.93743729248047Q92.37499355810547,142.79243729248049,92.43296755810547,142.65253729248047Q92.49094055810546,142.51253729248046,92.56235355810547,142.37893729248046Q92.63376755810548,142.24533729248049,92.71793155810546,142.11933729248045Q92.80209655810548,141.99343729248048,92.89820255810547,141.87633729248046Q92.99430855810547,141.75923729248046,93.10142955810547,141.65213729248046Q93.20855455810548,141.54493729248048,93.32565455810547,141.44883729248048Q93.44276455810547,141.35273729248047,93.56872455810547,141.26853729248046Q93.69468455810546,141.18443729248048,93.82828455810547,141.11303729248047Q93.96189455810547,141.04163729248046,94.10185455810547,140.98363729248047Q94.24181455810547,140.92563729248047,94.38678455810548,140.88163729248046Q94.53175455810546,140.83773729248048,94.68033455810547,140.80813729248047Q94.82891455810547,140.77863729248048,94.97968455810548,140.76373729248047Q95.13044455810547,140.74893729248046,95.28193455810546,140.74893729248046L150.78853455810548,140.74893729248046Q150.94003455810548,140.74893729248046,151.09083455810548,140.76373729248047Q151.24153455810546,140.77863729248048,151.39013455810547,140.80813729248047Q151.53873455810546,140.83773729248048,151.68373455810547,140.88163729248046Q151.82863455810548,140.92563729248047,151.96863455810546,140.98363729248047Q152.10853455810548,141.04163729248046,152.24213455810548,141.11303729248047Q152.37583455810545,141.18443729248048,152.50173455810545,141.26863729248046Q152.62773455810546,141.35273729248047,152.74483455810548,141.44883729248048Q152.86193455810547,141.54493729248048,152.96903455810548,141.65213729248046Q153.07613455810548,141.75923729248046,153.17223455810546,141.87633729248046Q153.26833455810547,141.99343729248048,153.35253455810548,142.11933729248045Q153.43673455810546,142.24533729248049,153.50813455810547,142.37893729248046Q153.57953455810548,142.51253729248046,153.63753455810547,142.65253729248047Q153.69543455810546,142.79243729248049,153.73943455810547,142.93743729248047Q153.78343455810545,143.08243729248048,153.81293455810547,143.23103729248047Q153.84253455810546,143.37953729248048,153.85743455810547,143.53033729248045Q153.87223455810548,143.68113729248046,153.87223455810548,143.83263729248046L153.87223455810548,143.83263729248046Q153.87223455810548,143.98413729248045,153.85743455810547,144.13483729248048Q153.84253455810546,144.28563729248046,153.81293455810547,144.43423729248047Q153.78343455810545,144.58273729248046,153.73943455810547,144.72773729248047Q153.69543455810546,144.87273729248045,153.63753455810547,145.01263729248046Q153.57953455810548,145.15263729248048,153.50813455810547,145.28623729248048Q153.43673455810546,145.41983729248045,153.35253455810548,145.54583729248048Q153.26833455810547,145.6717372924805,153.17223455810546,145.78883729248048Q153.07613455810548,145.90593729248047,152.96903455810548,146.01313729248048Q152.86193455810547,146.12023729248045,152.74483455810548,146.21633729248046Q152.62773455810546,146.31243729248047,152.50173455810545,146.39663729248048Q152.37583455810545,146.48073729248046,152.24213455810548,146.55213729248047Q152.10853455810548,146.62353729248048,151.96863455810546,146.68153729248047Q151.82863455810548,146.73953729248046,151.68373455810547,146.78353729248047Q151.53873455810546,146.82753729248049,151.39013455810547,146.85703729248047Q151.24153455810546,146.8866372924805,151.09083455810548,146.90143729248047Q150.94003455810548,146.91633729248048,150.78853455810548,146.91633729248048L95.28193455810546,146.91633729248048Q95.13044455810547,146.91633729248048,94.97968455810548,146.90143729248047Q94.82891455810547,146.8866372924805,94.68033455810547,146.85703729248047Q94.53175455810546,146.82753729248049,94.38678455810548,146.78353729248047Q94.24181455810547,146.73953729248046,94.10185455810547,146.68153729248047Q93.96189455810547,146.62353729248048,93.82828455810547,146.55213729248047Q93.69468455810546,146.48073729248046,93.56872455810547,146.39663729248048Q93.44276455810547,146.31243729248047,93.32565455810547,146.21633729248046Q93.20855455810548,146.12023729248045,93.10142955810547,146.01313729248048Q92.99430855810547,145.90593729248047,92.89820255810547,145.78883729248048Q92.80209655810548,145.6717372924805,92.71793155810546,145.54583729248048Q92.63376755810548,145.41983729248045,92.56235355810547,145.28623729248048Q92.49094055810546,145.15263729248048,92.43296755810547,145.01263729248046Q92.37499355810547,144.87273729248045,92.33101755810547,144.72773729248047Q92.28704175810547,144.58273729248046,92.25748695810547,144.43423729248047Q92.22793225810547,144.28563729248046,92.21308345810547,144.13483729248048Q92.19823455810547,143.98413729248045,92.19823455810547,143.83263729248046ZM92.19823455810547,157.04843729248046L92.19823455810547,157.04843729248046Q92.19823455810547,156.89693729248046,92.21308345810547,156.74613729248046Q92.22793225810547,156.59543729248048,92.25748695810547,156.44683729248047Q92.28704175810547,156.29823729248048,92.33101755810547,156.15323729248047Q92.37499355810547,156.00833729248046,92.43296755810547,155.86833729248048Q92.49094055810546,155.72833729248046,92.56235355810547,155.59473729248046Q92.63376755810548,155.46113729248046,92.71793155810546,155.33523729248049Q92.80209655810548,155.20923729248045,92.89820255810547,155.09213729248046Q92.99430855810547,154.97503729248047,93.10142955810547,154.86793729248046Q93.20855455810548,154.76073729248048,93.32565455810547,154.66463729248048Q93.44276455810547,154.56853729248047,93.56872455810547,154.48443729248046Q93.69468455810546,154.40023729248048,93.82828455810547,154.32883729248047Q93.96189455810547,154.25743729248046,94.10185455810547,154.19943729248047Q94.24181455810547,154.14143729248048,94.38678455810548,154.09753729248047Q94.53175455810546,154.05353729248048,94.68033455810547,154.02393729248047Q94.82891455810547,153.99443729248048,94.97968455810548,153.97953729248047Q95.13044455810547,153.96473729248046,95.28193455810546,153.96473729248046L150.78853455810548,153.96473729248046Q150.94003455810548,153.96473729248046,151.09083455810548,153.97953729248047Q151.24153455810546,153.99443729248048,151.39013455810547,154.02393729248047Q151.53873455810546,154.05353729248048,151.68373455810547,154.09753729248047Q151.82863455810548,154.14143729248048,151.96863455810546,154.19943729248047Q152.10853455810548,154.25743729248046,152.24213455810548,154.32883729248047Q152.37583455810545,154.40023729248048,152.50173455810545,154.48443729248046Q152.62773455810546,154.56853729248047,152.74483455810548,154.66463729248048Q152.86193455810547,154.76083729248046,152.96903455810548,154.86793729248046Q153.07613455810548,154.97503729248047,153.17223455810546,155.09213729248046Q153.26833455810547,155.20923729248045,153.35253455810548,155.33523729248049Q153.43673455810546,155.46113729248046,153.50813455810547,155.59473729248046Q153.57953455810548,155.72833729248046,153.63753455810547,155.86833729248048Q153.69543455810546,156.00833729248046,153.73943455810547,156.15323729248047Q153.78343455810545,156.29823729248048,153.81293455810547,156.44683729248047Q153.84253455810546,156.59543729248048,153.85743455810547,156.74613729248046Q153.87223455810548,156.89693729248046,153.87223455810548,157.04843729248046L153.87223455810548,157.04843729248046Q153.87223455810548,157.19993729248046,153.85743455810547,157.35063729248049Q153.84253455810546,157.50143729248046,153.81293455810547,157.65003729248048Q153.78343455810545,157.79863729248046,153.73943455810547,157.94353729248047Q153.69543455810546,158.08853729248045,153.63753455810547,158.22853729248047Q153.57953455810548,158.36843729248048,153.50813455810547,158.50203729248045Q153.43673455810546,158.63563729248045,153.35253455810548,158.7616372924805Q153.26833455810547,158.88763729248046,153.17223455810546,159.00473729248046Q153.07613455810548,159.12183729248048,152.96903455810548,159.22893729248045Q152.86193455810547,159.33603729248046,152.74483455810548,159.43213729248046Q152.62773455810546,159.52823729248047,152.50173455810545,159.61243729248048Q152.37583455810545,159.69653729248046,152.24213455810548,159.76803729248047Q152.10853455810548,159.83943729248045,151.96863455810546,159.89733729248047Q151.82863455810548,159.95533729248046,151.68373455810547,159.99933729248048Q151.53873455810546,160.04333729248046,151.39013455810547,160.07283729248047Q151.24153455810546,160.10243729248046,151.09083455810548,160.11723729248047Q150.94003455810548,160.13213729248048,150.78853455810548,160.13213729248048L95.28193455810546,160.13213729248048Q95.13044455810547,160.13213729248048,94.97968455810548,160.11723729248047Q94.82891455810547,160.10243729248046,94.68033455810547,160.07283729248047Q94.53175455810546,160.04333729248046,94.38678455810548,159.99933729248048Q94.24181455810547,159.95533729248046,94.10185455810547,159.89733729248047Q93.96189455810547,159.83943729248045,93.82828455810547,159.76803729248047Q93.69468455810546,159.69653729248046,93.56872455810547,159.61243729248048Q93.44276455810547,159.52823729248047,93.32565455810547,159.43213729248046Q93.20855455810548,159.33603729248046,93.10142955810547,159.22893729248045Q92.99430855810547,159.12183729248048,92.89820255810547,159.00473729248046Q92.80209655810548,158.88763729248046,92.71793155810546,158.7616372924805Q92.63376755810548,158.63563729248045,92.56235355810547,158.50203729248045Q92.49094055810546,158.36843729248048,92.43296755810547,158.22843729248046Q92.37499355810547,158.08853729248045,92.33101755810547,157.94353729248047Q92.28704175810547,157.79863729248046,92.25748695810547,157.65003729248048Q92.22793225810547,157.50143729248046,92.21308345810547,157.35063729248049Q92.19823455810547,157.19993729248046,92.19823455810547,157.04843729248046Z" fill="url(#master_svg2_24335_007033)" fill-opacity="1"/>
  </g>
  <g>
    <path d="M63.123348236083984,203.4713949584961C63.123348236083984,206.7850949584961,65.80963823608398,209.4713949584961,69.12334823608398,209.4713949584961L178.709348236084,209.4713949584961C182.023348236084,209.4713949584961,184.709348236084,206.7850949584961,184.709348236084,203.4713949584961L184.709348236084,163.6563949584961L150.34804823608397,163.6563949584961L146.620148236084,172.3547149584961C145.67464823608398,174.5607949584961,143.50544823608396,175.9911949584961,141.10524823608398,175.9911949584961L106.72734823608398,175.9911949584961C104.32714823608399,175.9911949584961,102.15794823608398,174.5607949584961,101.21244823608399,172.3547149584961L97.48454823608398,163.6563949584961L63.123348236083984,163.6563949584961L63.123348236083984,203.4713949584961Z" fill="url(#master_svg3_20062_013346)" fill-opacity="1"/>
  </g>
  <g>
    <path d="M201.8898393798828,89.6476C215.7578393798828,89.6476,227.00003937988282,80.7722,227.00003937988282,69.8238C227.00003937988282,58.87541,215.7578393798828,50,201.8898393798828,50C188.0219393798828,50,176.7797393798828,58.87541,176.7797393798828,69.8238C176.7797393798828,73.5251,178.06460937988282,76.98949999999999,180.30142937988282,79.9541L178.54184937988282,90.5286L190.4355393798828,87.4696C193.86993937988282,88.86189999999999,197.76363937988282,89.6476,201.8898393798828,89.6476ZM188.6741393798828,74.6696Q188.86893937988282,74.6696,189.0628393798828,74.6505Q189.2566393798828,74.6314,189.44763937988282,74.5934Q189.63873937988282,74.55539999999999,189.8251393798828,74.49889999999999Q190.0114393798828,74.44239999999999,190.1914393798828,74.3678Q190.3713393798828,74.2933,190.5431393798828,74.2015Q190.71493937988282,74.1097,190.87683937988282,74.0014Q191.0388393798828,73.89320000000001,191.1894393798828,73.7697Q191.33993937988282,73.6461,191.47773937988282,73.5084Q191.61543937988282,73.3706,191.73893937988282,73.2201Q191.8625393798828,73.0695,191.97073937988282,72.9076Q192.07893937988283,72.7456,192.1707393798828,72.5738Q192.2626393798828,72.4021,192.3371393798828,72.2221Q192.4116393798828,72.04220000000001,192.46823937988282,71.8558Q192.52473937988282,71.6694,192.5627393798828,71.4784Q192.6007393798828,71.2873,192.61983937988282,71.0935Q192.6389393798828,70.89959999999999,192.6389393798828,70.7049Q192.6389393798828,70.5101,192.61983937988282,70.3163Q192.6007393798828,70.1224,192.5627393798828,69.9314Q192.52473937988282,69.7404,192.46823937988282,69.554Q192.4116393798828,69.3676,192.3371393798828,69.1876Q192.2626393798828,69.0077,192.1707393798828,68.8359Q192.07893937988283,68.6641,191.97073937988282,68.5022Q191.8625393798828,68.3402,191.73893937988282,68.1897Q191.61543937988282,68.0391,191.47773937988282,67.9014Q191.33993937988282,67.7636,191.1894393798828,67.6401Q191.0388393798828,67.51650000000001,190.87683937988282,67.4083Q190.71493937988282,67.3001,190.5431393798828,67.20830000000001Q190.3713393798828,67.1164,190.1914393798828,67.0419Q190.0114393798828,66.9674,189.8251393798828,66.9108Q189.63873937988282,66.8543,189.44763937988282,66.8163Q189.2566393798828,66.7783,189.0628393798828,66.75919999999999Q188.86893937988282,66.7401,188.6741393798828,66.7401Q188.47943937988282,66.7401,188.2855393798828,66.75919999999999Q188.09173937988282,66.7783,187.90073937988282,66.8163Q187.70963937988282,66.8543,187.52323937988282,66.9108Q187.3368393798828,66.9674,187.1569393798828,67.0419Q186.97693937988282,67.1164,186.8052393798828,67.20830000000001Q186.6334293798828,67.3001,186.47147937988282,67.4083Q186.3095293798828,67.51650000000001,186.15896937988282,67.6401Q186.0084093798828,67.7636,185.8706793798828,67.9014Q185.73294937988283,68.0391,185.60938937988283,68.1897Q185.4858193798828,68.3402,185.3776093798828,68.5022Q185.26939937988283,68.6641,185.17757937988281,68.8359Q185.0857593798828,69.0077,185.01122937988282,69.1876Q184.9366893798828,69.3676,184.88014937988282,69.554Q184.8236093798828,69.7404,184.7856093798828,69.9314Q184.74760937988282,70.1224,184.7285193798828,70.3163Q184.7094293798828,70.5101,184.7094293798828,70.7049Q184.7094293798828,70.89959999999999,184.7285193798828,71.0935Q184.74760937988282,71.2873,184.7856093798828,71.4784Q184.8236093798828,71.6694,184.88014937988282,71.8558Q184.9366893798828,72.04220000000001,185.01122937988282,72.2221Q185.0857593798828,72.4021,185.17757937988281,72.5738Q185.26939937988283,72.7456,185.3776093798828,72.9076Q185.4858193798828,73.0695,185.60938937988283,73.2201Q185.73294937988283,73.3706,185.8706793798828,73.5084Q186.0084093798828,73.6461,186.15896937988282,73.7697Q186.3095293798828,73.89320000000001,186.47147937988282,74.0014Q186.6334293798828,74.1097,186.8052393798828,74.2015Q186.97693937988282,74.2933,187.1569393798828,74.3678Q187.3368393798828,74.44239999999999,187.52323937988282,74.49889999999999Q187.70963937988282,74.55539999999999,187.90073937988282,74.5934Q188.09173937988282,74.6314,188.2855393798828,74.6505Q188.47943937988282,74.6696,188.6741393798828,74.6696ZM201.8900393798828,74.6696Q202.08473937988282,74.6696,202.2786393798828,74.6505Q202.47243937988281,74.6314,202.66343937988282,74.5934Q202.85453937988282,74.55539999999999,203.04093937988281,74.49889999999999Q203.2273393798828,74.44239999999999,203.4072393798828,74.3678Q203.58723937988282,74.2933,203.7589393798828,74.2015Q203.93073937988282,74.1097,204.0927393798828,74.0014Q204.2546393798828,73.89320000000001,204.4052393798828,73.7697Q204.55573937988282,73.6461,204.69353937988282,73.5084Q204.83123937988282,73.3706,204.9548393798828,73.2201Q205.0783393798828,73.0695,205.18653937988282,72.9076Q205.2948393798828,72.7456,205.3866393798828,72.5738Q205.47843937988281,72.4021,205.55293937988282,72.2221Q205.62753937988282,72.04220000000001,205.68403937988282,71.8558Q205.74053937988282,71.6694,205.7785393798828,71.4784Q205.8165393798828,71.2873,205.83563937988282,71.0935Q205.8547393798828,70.89959999999999,205.8547393798828,70.7049Q205.8547393798828,70.5101,205.83563937988282,70.3163Q205.8165393798828,70.1224,205.7785393798828,69.9314Q205.74053937988282,69.7404,205.68403937988282,69.554Q205.62753937988282,69.3676,205.55293937988282,69.1876Q205.47843937988281,69.0077,205.3866393798828,68.8359Q205.2948393798828,68.6641,205.18653937988282,68.5022Q205.0783393798828,68.3402,204.9548393798828,68.1897Q204.83123937988282,68.0391,204.69353937988282,67.9014Q204.55573937988282,67.7636,204.4052393798828,67.6401Q204.2546393798828,67.51650000000001,204.0927393798828,67.4083Q203.93073937988282,67.3001,203.7589393798828,67.20830000000001Q203.58723937988282,67.1164,203.4072393798828,67.0419Q203.2273393798828,66.9674,203.04093937988281,66.9108Q202.85453937988282,66.8543,202.66353937988282,66.8163Q202.47243937988281,66.7783,202.2786393798828,66.75919999999999Q202.08473937988282,66.7401,201.8900393798828,66.7401Q201.69523937988282,66.7401,201.5014393798828,66.75919999999999Q201.30753937988283,66.7783,201.11653937988282,66.8163Q200.92543937988282,66.8543,200.7391393798828,66.9108Q200.5527393798828,66.9674,200.3727393798828,67.0419Q200.1928393798828,67.1164,200.0210393798828,67.20830000000001Q199.84923937988282,67.3001,199.68733937988281,67.4083Q199.5253393798828,67.51650000000001,199.3747393798828,67.6401Q199.22423937988282,67.7636,199.08653937988282,67.9014Q198.94873937988282,68.0391,198.82523937988282,68.1897Q198.7016393798828,68.3402,198.59343937988282,68.5022Q198.4852393798828,68.6641,198.3934393798828,68.8359Q198.3015393798828,69.0077,198.2270393798828,69.1876Q198.15253937988282,69.3676,198.09593937988282,69.554Q198.03943937988282,69.7404,198.0014393798828,69.9314Q197.9634393798828,70.1224,197.94433937988282,70.3163Q197.9252393798828,70.5101,197.9252393798828,70.7049Q197.9252393798828,70.89959999999999,197.94433937988282,71.0935Q197.9634393798828,71.2873,198.0014393798828,71.4784Q198.03943937988282,71.6694,198.09593937988282,71.8558Q198.15253937988282,72.04220000000001,198.2270393798828,72.2221Q198.3015393798828,72.4021,198.3934393798828,72.5738Q198.4852393798828,72.7456,198.59343937988282,72.9076Q198.7016393798828,73.0695,198.82523937988282,73.2201Q198.94873937988282,73.3706,199.08653937988282,73.5084Q199.22423937988282,73.6461,199.3747393798828,73.7697Q199.5253393798828,73.89320000000001,199.68733937988281,74.0014Q199.84923937988282,74.1097,200.0210393798828,74.2015Q200.1928393798828,74.2933,200.3727393798828,74.3678Q200.5527393798828,74.44239999999999,200.7391393798828,74.49889999999999Q200.92543937988282,74.55539999999999,201.11653937988282,74.5934Q201.30753937988283,74.6314,201.5014393798828,74.6505Q201.69523937988282,74.6696,201.8900393798828,74.6696ZM215.1058393798828,74.6696Q215.3006393798828,74.6696,215.4944393798828,74.6505Q215.68823937988282,74.6314,215.87933937988282,74.5934Q216.0703393798828,74.55539999999999,216.25673937988282,74.49889999999999Q216.4431393798828,74.44239999999999,216.6230393798828,74.3678Q216.80303937988282,74.2933,216.9748393798828,74.2015Q217.14653937988282,74.1097,217.3085393798828,74.0014Q217.4704393798828,73.89320000000001,217.6210393798828,73.7697Q217.7716393798828,73.6461,217.90933937988282,73.5084Q218.04703937988282,73.3706,218.1706393798828,73.2201Q218.2942393798828,73.0695,218.40243937988282,72.9076Q218.5106393798828,72.7456,218.6024393798828,72.5738Q218.69423937988282,72.4021,218.76873937988282,72.2221Q218.84333937988282,72.04220000000001,218.89983937988282,71.8558Q218.9564393798828,71.6694,218.9944393798828,71.4784Q219.03243937988282,71.2873,219.0515393798828,71.0935Q219.0705393798828,70.89959999999999,219.0705393798828,70.7049Q219.0705393798828,70.5101,219.0515393798828,70.3163Q219.03243937988282,70.1224,218.9944393798828,69.9314Q218.9564393798828,69.7404,218.89983937988282,69.554Q218.84333937988282,69.3676,218.76873937988282,69.1876Q218.69423937988282,69.0077,218.6024393798828,68.8359Q218.5106393798828,68.6641,218.40243937988282,68.5022Q218.2942393798828,68.3402,218.1706393798828,68.1897Q218.04703937988282,68.0391,217.90933937988282,67.9014Q217.7716393798828,67.7636,217.6210393798828,67.6401Q217.4704393798828,67.51650000000001,217.3085393798828,67.4083Q217.14653937988282,67.3001,216.9748393798828,67.20830000000001Q216.80303937988282,67.1164,216.6230393798828,67.0419Q216.4431393798828,66.9674,216.25673937988282,66.9108Q216.0703393798828,66.8543,215.87933937988282,66.8163Q215.68823937988282,66.7783,215.4944393798828,66.75919999999999Q215.3006393798828,66.7401,215.1058393798828,66.7401Q214.91103937988282,66.7401,214.7172393798828,66.75919999999999Q214.52333937988283,66.7783,214.3323393798828,66.8163Q214.14133937988282,66.8543,213.9549393798828,66.9108Q213.7685393798828,66.9674,213.5885393798828,67.0419Q213.4086393798828,67.1164,213.2368393798828,67.20830000000001Q213.06503937988282,67.3001,212.90313937988282,67.4083Q212.7411393798828,67.51650000000001,212.59063937988282,67.6401Q212.44003937988282,67.7636,212.30233937988282,67.9014Q212.1645393798828,68.0391,212.04103937988282,68.1897Q211.9174393798828,68.3402,211.8092393798828,68.5022Q211.70103937988281,68.6641,211.6092393798828,68.8359Q211.5174393798828,69.0077,211.4428393798828,69.1876Q211.3683393798828,69.3676,211.3117393798828,69.554Q211.25523937988282,69.7404,211.2172393798828,69.9314Q211.1792393798828,70.1224,211.16013937988282,70.3163Q211.1410393798828,70.5101,211.1410393798828,70.7049Q211.1410393798828,70.89959999999999,211.16013937988282,71.0935Q211.1792393798828,71.2873,211.2172393798828,71.4784Q211.25523937988282,71.6694,211.3117393798828,71.8558Q211.3683393798828,72.04220000000001,211.4428393798828,72.2221Q211.5174393798828,72.4021,211.6092393798828,72.5738Q211.70103937988281,72.7456,211.8092393798828,72.9076Q211.9174393798828,73.0695,212.04103937988282,73.2201Q212.1645393798828,73.3706,212.30233937988282,73.5084Q212.44003937988282,73.6461,212.59063937988282,73.7697Q212.7411393798828,73.89320000000001,212.90313937988282,74.0014Q213.06503937988282,74.1097,213.2368393798828,74.2015Q213.4086393798828,74.2933,213.5885393798828,74.3678Q213.7685393798828,74.44239999999999,213.9549393798828,74.49889999999999Q214.14133937988282,74.55539999999999,214.3323393798828,74.5934Q214.52333937988283,74.6314,214.7172393798828,74.6505Q214.91103937988282,74.6696,215.1058393798828,74.6696Z" fill-rule="evenodd" fill="url(#master_svg4_24423_006464)" fill-opacity="1"/>
  </g>
</svg>