<svg fill="none" version="1.1" width="254" height="294" viewBox="0 0 254 294">
  <defs>
    <clipPath id="master_svg0_20062_015843">
      <rect x="0" y="0" width="254" height="294" rx="0"/>
    </clipPath>
    <linearGradient x1="0.5" y1="0" x2="0.5" y2="1" id="master_svg1_20062_011188">
      <stop offset="0%" stop-color="#D8D8D8" stop-opacity="1"/>
      <stop offset="100%" stop-color="#FFFFFF" stop-opacity="0"/>
    </linearGradient>
    <linearGradient x1="-0.29891374707221985" y1="0.7650653719902039" x2="0.6762382984161377" y2="0.9875760674476624" id="master_svg2_20062_008909">
      <stop offset="0%" stop-color="#F8FBFF" stop-opacity="1"/>
      <stop offset="100%" stop-color="#E1E1E1" stop-opacity="1"/>
    </linearGradient>
    <linearGradient x1="0.5" y1="0" x2="0.4609825909137726" y2="1" id="master_svg3_20062_012805">
      <stop offset="0%" stop-color="#FFFFFF" stop-opacity="1"/>
      <stop offset="100%" stop-color="#B5B5B5" stop-opacity="1"/>
    </linearGradient>
    <linearGradient x1="0.10348694771528244" y1="0.8235872387886047" x2="0.8967307209968567" y2="0.35489511489868164" id="master_svg4_20062_012263">
      <stop offset="0%" stop-color="#F1F1F1" stop-opacity="1"/>
      <stop offset="100%" stop-color="#E1E1E1" stop-opacity="1"/>
    </linearGradient>
    <linearGradient x1="0.5" y1="0" x2="0.5" y2="1" id="master_svg5_20062_013325">
      <stop offset="0%" stop-color="#FFFFFF" stop-opacity="1"/>
      <stop offset="38.57142925262451%" stop-color="#F0EFEF" stop-opacity="0.6000000238418579"/>
      <stop offset="99.28571581840515%" stop-color="#FFFFFF" stop-opacity="0"/>
    </linearGradient>
  </defs>
  <g>
    <path d="M221.989,215.13663392333984Q222,214.86313392333983,222,214.58963392333985Q222,213.71673392333986,221.886,212.84483392333985Q221.771,211.97303392333984,221.543,211.10433392333985Q221.314,210.23563392333983,220.972,209.37213392333985Q220.63,208.50863392333986,220.175,207.65253392333983Q219.72,206.79643392333983,219.153,205.94963392333983Q218.586,205.10293392333983,217.909,204.26763392333984Q217.232,203.43223392333985,216.447,202.61043392333985Q215.661,201.78853392333986,214.769,200.98203392333986Q213.876,200.17563392333983,212.879,199.38653392333984Q211.882,198.59743392333985,210.782,197.82753392333984Q209.683,197.05773392333984,208.484,196.30903392333985Q207.285,195.56033392333984,205.99,194.83453392333985Q204.694,194.10873392333986,203.305,193.40753392333986Q201.915,192.70643392333983,200.436,192.03163392333985Q198.956,191.35693392333985,197.39,190.71013392333984Q195.824,190.06333392333985,194.175,189.44613392333986Q192.526,188.82887392333984,190.798,188.24266392333985Q189.07,187.65645392333985,187.267,187.10269392333984Q185.465,186.54892392333986,183.591,186.02893392333985Q181.718,185.50894392333984,179.779,185.02398392333984Q177.84,184.53902392333984,175.84,184.09026392333985Q173.839,183.64149392333985,171.783,183.23001392333984Q169.726,182.81852392333985,167.618,182.44531392333985Q165.509,182.07209392333985,163.355,181.73804392333983Q161.2,181.40400392333984,159.005,181.10992392333984Q156.809,180.81585392333983,154.577,180.56246392333983Q152.345,180.30907392333984,150.083,180.09697392333985Q147.821,179.88487192333983,145.534,179.71457592333985Q143.24599999999998,179.54428092333984,140.939,179.41619892333983Q138.63299999999998,179.28811692333986,136.312,179.20255692333984Q133.99099999999999,179.11699692333985,131.66140000000001,179.07416542333985Q129.3321,179.03133392333984,127,179.03133392333984Q124.6679,179.03133392333984,122.3386,179.07416542333985Q120.0093,179.11699692333985,117.6884,179.20255692333984Q115.3675,179.28811692333986,113.0606,179.41619892333983Q110.7537,179.54428092333984,108.4664,179.71457592333985Q106.1791,179.88487192333983,103.9169,180.09697392333985Q101.6546,180.30907392333984,99.423,180.56246392333983Q97.1913,180.81585392333983,94.99549999999999,181.10992392333984Q92.7997,181.40400392333984,90.6451,181.73804392333983Q88.4905,182.07209392333985,86.3823,182.44531392333985Q84.2741,182.81852392333985,82.2173,183.23001392333984Q80.1606,183.64149392333985,78.1602,184.09026392333985Q76.1599,184.53902392333984,74.2208,185.02398392333984Q72.2817,185.50894392333984,70.4086,186.02893392333985Q68.53540000000001,186.54892392333986,66.73259999999999,187.10269392333984Q64.9299,187.65645392333985,63.201899999999995,188.24266392333985Q61.4739,188.82887392333984,59.8249,189.44613392333986Q58.175799999999995,190.06333392333985,56.6096,190.71013392333984Q55.0435,191.35693392333985,53.564,192.03163392333985Q52.0845,192.70643392333983,50.6953,193.40753392333986Q49.306,194.10873392333986,48.010400000000004,194.83453392333985Q46.7147,195.56033392333984,45.5158,196.30903392333985Q44.3168,197.05773392333984,43.2175,197.82753392333984Q42.1181,198.59743392333985,41.12102,199.38653392333984Q40.12391,200.17563392333983,39.23144,200.98203392333986Q38.33898,201.78853392333986,37.553309999999996,202.61043392333985Q36.76765,203.43223392333985,36.09067,204.26763392333984Q35.41369,205.10293392333983,34.847030000000004,205.94963392333983Q34.28037,206.79643392333983,33.8254,207.65253392333983Q33.37042,208.50863392333986,33.02823,209.37213392333985Q32.686039,210.23563392333983,32.457451,211.10433392333985Q32.228863,211.97303392333984,32.114432,212.84483392333985Q32,213.71673392333986,32,214.58963392333985Q31.999999999999986,214.86313392333983,32.0112436,215.13663392333984L221.989,215.13663392333984Z" fill-rule="evenodd" fill="url(#master_svg1_20062_011188)" fill-opacity="1"/>
  </g>
  <g transform="matrix(0.9743700623512268,0.22495105862617493,-0.22495105862617493,0.9743700623512268,18.3636416427195,-13.1775694288459)">
    <g>
      <g>
        <ellipse cx="147.1747226715088" cy="95.46083056321368" rx="29.666975021362305" ry="21.461219787597656" fill="url(#master_svg2_20062_008909)" fill-opacity="1"/>
      </g>
      <g>
        <ellipse cx="146.54417719389312" cy="113.76609299023403" rx="79.53274536132812" ry="28.404552459716797" fill="url(#master_svg3_20062_012805)" fill-opacity="1"/>
      </g>
      <g>
        <ellipse cx="146.54358673095703" cy="116.29192802746547" rx="79.53274536132812" ry="28.404552459716797" fill="url(#master_svg4_20062_012263)" fill-opacity="1"/>
      </g>
      <g>
        <ellipse cx="145.28124237060547" cy="131.43995735485805" rx="31.560611724853516" ry="10.730609893798828" fill="#FFFFFF" fill-opacity="1"/>
      </g>
      <g>
        <ellipse cx="204.61478424072266" cy="106.8232929452206" rx="5.0496978759765625" ry="5.049698352813721" fill="#FFFFFF" fill-opacity="1"/>
      </g>
      <g>
        <ellipse cx="127.60690307617188" cy="99.24899217922939" rx="5.0496978759765625" ry="5.049698352813721" fill="#FFFFFF" fill-opacity="1"/>
      </g>
      <g>
        <ellipse cx="166.74330139160156" cy="99.2484581216122" rx="5.0496978759765625" ry="5.049698352813721" fill="#FFFFFF" fill-opacity="1"/>
      </g>
      <g>
        <ellipse cx="89.734375" cy="106.82275888760341" rx="5.0496978759765625" ry="5.049698352813721" fill="#FFFFFF" fill-opacity="1"/>
      </g>
    </g>
    <g>
      <path d="M114.63288262023926,128.87524524304163Q114.78938262023925,128.65869524304165,114.97228262023926,128.44454524304166Q115.15508262023926,128.23038524304164,115.36398262023926,128.01900524304165Q115.57288262023926,127.80761524304165,115.80738262023925,127.59936524304165Q116.04188262023925,127.39111524304164,116.30168262023926,127.18635524304165Q116.56138262023926,126.98159524304165,116.84598262023925,126.78067524304164Q117.13048262023926,126.57976524304165,117.43938262023926,126.38303524304165Q117.74818262023926,126.18631524304165,118.08088262023927,125.99412524304165Q118.41348262023925,125.80194524304164,118.76928262023927,125.61461524304164Q119.12518262023926,125.42729524304164,119.50358262023926,125.24515524304165Q119.88198262023926,125.06301524304165,120.28228262023926,124.88638524304164Q120.68258262023926,124.70974524304165,121.10418262023926,124.53891524304164Q121.52578262023926,124.36809524304165,121.96788262023927,124.20336524304165Q122.40998262023926,124.03864524304164,122.87178262023926,123.88030524304165Q123.33358262023926,123.72196524304165,123.81438262023926,123.57028524304164Q124.29518262023926,123.41860524304164,124.79408262023927,123.27385524304165Q125.29298262023926,123.12909524304165,125.80908262023925,122.99151524304165Q126.32528262023925,122.85392524304164,126.85778262023926,122.72375524304165Q127.39028262023926,122.59357524304164,127.93828262023925,122.47103524304164Q128.48618262023925,122.34849524304164,129.04868262023925,122.23380524304164Q129.61118262023925,122.11910524304164,130.18718262023927,122.01245524304164Q130.76318262023926,121.90580524304164,131.35168262023927,121.80738524304165Q131.94018262023926,121.70895524304164,132.54018262023925,121.61893524304165Q133.14028262023925,121.52891024304165,133.75078262023925,121.44743924304164Q134.36138262023925,121.36596724304165,134.98128262023926,121.29319024304165Q135.60128262023926,121.22041324304165,136.22958262023926,121.15645624304165Q136.85788262023925,121.09249924304164,137.49348262023926,121.03747124304165Q138.12908262023927,120.98244424304164,138.77078262023926,120.93644324304165Q139.41258262023925,120.89044124304165,140.05938262023926,120.85354424304164Q140.70618262023925,120.81664624304165,141.35698262023925,120.78891794304164Q142.00778262023925,120.76118914304165,142.66138262023927,120.74267674304164Q143.31498262023925,120.72416424304164,143.97028262023926,120.71489999304164Q144.62558262023924,120.70563576064164,145.28148262023927,120.70563576064164Q146.02608262023926,120.70563576064164,146.76978262023925,120.71757334304165Q147.51348262023924,120.72951084304165,148.25468262023927,120.75335934304165Q148.99598262023926,120.77720794304165,149.73308262023926,120.81291424304165Q150.47018262023926,120.84862124304165,151.20148262023926,120.89610624304164Q151.93288262023924,120.94359024304164,152.65678262023926,121.00274824304165Q153.38078262023924,121.06190624304165,154.09568262023924,121.13260524304165Q154.81058262023924,121.20330424304164,155.51498262023927,121.28538724304164Q156.21928262023926,121.36747024304165,156.91138262023927,121.46075424304165Q157.60358262023925,121.55403824304165,158.28208262023927,121.65831624304164Q158.96048262023925,121.76259524304164,159.62368262023926,121.87763524304165Q160.28698262023926,121.99267524304165,160.93348262023926,122.11821524304165Q161.58008262023927,122.24376524304165,162.20848262023927,122.37953524304164Q162.83688262023924,122.51530524304165,163.44578262023924,122.66100524304164Q164.05458262023927,122.80669524304164,164.64258262023924,122.96199524304164Q165.23058262023926,123.11729524304164,165.79638262023926,123.28184524304164Q166.36218262023925,123.44639524304165,166.90458262023924,123.61983524304165Q167.44688262023925,123.79327524304165,167.96458262023924,123.97521524304165Q168.48228262023926,124.15715524304164,168.97418262023928,124.34719524304164Q169.46608262023926,124.53723524304165,169.93098262023926,124.73495524304164Q170.39598262023924,124.93266524304164,170.83308262023925,125.13761524304165Q171.27008262023926,125.34256524304165,171.67818262023926,125.55429524304165Q172.08638262023925,125.76602524304164,172.46468262023927,125.98406524304164Q172.84298262023924,126.20209524304164,173.19058262023924,126.42595524304164Q173.53828262023927,126.64981524304164,173.85448262023925,126.87900524304165Q174.17068262023926,127.10818524304165,174.45468262023925,127.34218524304164Q174.73878262023925,127.57618524304165,174.99008262023926,127.81447524304164Q175.24138262023928,128.05277524304165,175.45938262023924,128.29483524304163Q175.67728262023925,128.53688524304164,175.86148262023926,128.78216524304165Q176.04568262023926,129.02745524304166,176.19558262023926,129.27541524304164Q176.34548262023924,129.52337524304164,176.46088262023926,129.77347524304164Q176.57628262023925,130.02356524304165,176.65678262023926,130.27522524304163Q176.73738262023926,130.52688524304165,176.78298262023924,130.77960524304166L196.05908262023925,180.63600524304164L98.79947090123926,180.07130524304165L113.72088262023925,131.42360524304164Q113.72468262023926,130.31732524304164,114.39228262023926,129.23460524304164L114.50338262023925,128.87235524304165L114.63288262023926,128.87524524304163Z" fill-rule="evenodd" fill="url(#master_svg5_20062_013325)" fill-opacity="1"/>
    </g>
  </g>
</svg>